<svg xmlns="http://www.w3.org/2000/svg" viewBox="0 0 606.36 161.82"><defs><style>.cls-1{fill:#009cde;}.cls-2{fill:#003087;}</style></defs><title>资源 1</title><g id="图层_2" data-name="图层 2"><g id="图层_1-2" data-name="图层 1"><path class="cls-1" d="M409.09,0H361.82c-2.73,0-6.36,2.73-6.36,5.45L336.36,126.36c0,2.73,1.82,4.55,3.64,4.55h24.55c2.73,0,4.55-1.82,4.55-3.64l5.45-34.55c0-2.73,2.73-5.45,6.36-5.45h14.55c30.91,0,49.09-15.45,53.64-44.55,1.82-12.73,0-23.64-6.36-30.91C437.27,4.55,425.45,0,409.09,0Zm5.45,44.55c-2.73,17.27-15.45,17.27-28.18,17.27h-7.27L384.55,30a3.91,3.91,0,0,1,3.64-3.64h2.73c8.18,0,16.36,0,20.91,4.55C415.45,33.64,415.45,38.18,414.55,44.55Z"/><path class="cls-2" d="M72.73,0H26.36C23.64,0,20,2.73,20,5.45L0,126.36c0,2.73,1.82,4.55,3.64,4.55H26.36c2.73,0,6.36-2.73,6.36-5.45l5.45-32.73c0-2.73,2.73-5.45,6.36-5.45H59.09c30.91,0,49.09-15.45,53.64-44.55,1.82-12.73,0-23.64-6.36-30.91C100.91,4.55,89.09,0,72.73,0Zm6.36,44.55C76.36,60.91,63.64,60.91,50.91,60.91H43.64l5.45-31.82a3.91,3.91,0,0,1,3.64-3.64h2.73c8.18,0,16.36,0,20.91,4.55,2.73,3.64,2.73,8.18,2.73,14.55Zm134.55-.91H190.91a3.91,3.91,0,0,0-3.64,3.64l-.91,6.36-1.82-2.73c-4.55-7.27-15.45-9.09-26.36-9.09-25.45,0-46.36,19.09-50,45.45-1.82,12.73.91,25.45,8.18,34.55,7.27,8.18,16.36,11.82,28.18,11.82,20,0,30.91-12.73,30.91-12.73l-.91,6.36c0,2.73,1.82,4.55,3.64,4.55h20.91c2.73,0,6.36-2.73,6.36-5.45l12.73-77.27C218.18,45.45,216.36,43.64,213.64,43.64ZM182.73,87.27a25.49,25.49,0,0,1-25.45,21.82c-6.36,0-11.82-1.82-15.45-6.36-3.64-3.64-4.55-9.09-3.64-15.45a25.49,25.49,0,0,1,25.45-21.82c6.36,0,11.82,1.82,15.45,6.36,3.64,3.64,4.55,9.09,3.64,15.45Z"/><path class="cls-1" d="M550,43.64H527.27a3.91,3.91,0,0,0-3.64,3.64l-.91,6.36-1.82-2.73c-4.55-7.27-15.45-9.09-26.36-9.09-25.45,0-46.36,19.09-50,45.45-1.82,12.73.91,25.45,8.18,34.55,7.27,8.18,16.36,11.82,28.18,11.82,20,0,30.91-12.73,30.91-12.73l-.91,6.36c0,2.73,1.82,4.55,3.64,4.55h20.91c2.73,0,6.36-2.73,6.36-5.45l12.73-77.27C554.55,45.45,552.73,43.64,550,43.64ZM519.09,87.27a25.49,25.49,0,0,1-25.45,21.82c-6.36,0-11.82-1.82-15.45-6.36-3.64-3.64-4.55-9.09-3.64-15.45A25.49,25.49,0,0,1,500,65.45c6.36,0,11.82,1.82,15.45,6.36a20.82,20.82,0,0,1,3.64,15.45Z"/><path class="cls-2" d="M334.55,43.64H311.82c-1.82,0-4.55.91-5.45,2.73L275.45,92.73,261.82,48.18a6.84,6.84,0,0,0-6.36-4.55H233.64A4,4,0,0,0,230,49.09l25.45,73.64-23.64,32.73c-1.82,2.73,0,6.36,2.73,6.36h22.73c1.82,0,4.55-.91,5.45-2.73L338.18,50c.91-2.73-.91-6.36-3.64-6.36Z"/><path class="cls-1" d="M577.27,3.64,558.18,126.36c0,2.73,1.82,4.55,3.64,4.55h19.09c2.73,0,6.36-2.73,6.36-5.45L606.36,4.55c0-2.73-1.82-4.55-3.64-4.55H580.91A3.33,3.33,0,0,0,577.27,3.64Z"/></g></g></svg>