<?xml version="1.0" encoding="UTF-8"?>
<svg width="64px" height="64px" viewBox="0 0 64 64" version="1.1" xmlns="http://www.w3.org/2000/svg" xmlns:xlink="http://www.w3.org/1999/xlink">
    <title>Copper_cables</title>
    <g id="页面-1" stroke="none" stroke-width="1" fill="none" fill-rule="evenodd">
        <g id="Copper_cables" fill-rule="nonzero">
            <polygon id="路径" fill-opacity="0" fill="#FFFFFF" points="0 0 64 0 64 64 0 64"></polygon>
            <path d="M18,25 L18,20 L23,20 L23,25 L18,25 Z M20,43 L15,43 L15,38 L20,38 L20,43 Z" id="形状" fill="#E8E9EB"></path>
            <path d="M15.993,25.023 L15.993,21.038 C15.993,19.91 16.914,18.992 18.045,18.992 L25,18.999 L25,26.999 L18,26.999 C16.868,26.999 15.993,26.151 15.993,25.023 Z M18.099,25.023 L22.984,24.978 L22.984,21.092 L18.045,21.092 L18.099,25.023 Z M22,44.999 L15.049,45 C13.917,45 12.997,44.083 12.997,42.954 L12.997,38.969 C12.997,37.841 13.868,36.999 15,36.999 L22,36.999 L22,44.999 Z M19.988,39.023 L15.049,39.023 L15.103,42.954 L19.988,42.909 L19.988,39.023 Z" id="形状" fill="#19191A"></path>
            <path d="M41.012,41.958 L25.032,41.958 L25.032,39.966 L35.045,39.966 C32.61,38.147 31.025,35.257 31.025,31.996 C31.025,26.503 35.505,22.034 41.012,22.034 C46.52,22.034 51,26.503 51,31.996 C51,37.489 46.52,41.958 41.012,41.958 Z M41.012,24.027 C36.607,24.027 33.022,27.602 33.022,31.996 C33.022,36.391 36.607,39.966 41.012,39.966 C45.418,39.966 49.002,36.391 49.002,31.996 C49.002,27.602 45.418,24.027 41.012,24.027 Z M28.029,24.027 L28.029,22.034 L34.393,22.034 C33.542,22.597 32.776,23.272 32.097,24.027 L28.029,24.027 Z M26.031,25.023 L26.031,21.038 L28.029,21.038 L28,24.999 L26.031,25.023 Z M23.035,38.969 L25,38.999 L25,42.999 L23.035,42.954 L23.035,38.969 Z" id="形状" fill="#19191A"></path>
            <path d="M26,25 L26,21 L28,21 L28,25 L26,25 Z M23,39 L25,39 L25,43 L23,43 L23,39 Z" id="形状" fill="#19191A"></path>
        </g>
    </g>
</svg>