<svg id="图层_1" data-name="图层 1" xmlns="http://www.w3.org/2000/svg" viewBox="0 0 248.24 146.45"><defs><style>.cls-1{fill:none;stroke:#bcbcbc;stroke-miterlimit:10;stroke-width:0.36px;}.cls-2{fill:#101a65;}.cls-3{fill:#002187;}.cls-4{fill:#002493;}.cls-5{fill:#081d76;}.cls-6{fill:#00279a;}.cls-7{fill:#02207f;}</style></defs><rect class="cls-1" x="0.18" y="0.18" width="247.89" height="146.09"/><path class="cls-2" d="M75.19,68.47l2.12-5.36q6-15.09,11.92-30.2l.06-.12c.14-.36.14-.36.5-.36h13.93c.06.19-.06.32-.12.46L96.22,50.57,81.82,85a.76.76,0,0,0-.08.21c-.07.27-.25.32-.5.32H67.59c-.39,0-.4,0-.51-.44L64.17,73.87,56.25,43.31a15,15,0,0,0-.56-1.76,5.44,5.44,0,0,0-2.11-2.62,18,18,0,0,0-3.35-1.65A58.21,58.21,0,0,0,40,34.2c-.35-.07-.35-.08-.29-.43s.13-.74.18-1.11c0-.16.08-.24.26-.23H62.57a7.7,7.7,0,0,1,2.82.46,6,6,0,0,1,3.9,4.75C70.14,42,71,46.42,71.8,50.81l2.55,13.48c.25,1.28.49,2.56.73,3.84A3.06,3.06,0,0,0,75.19,68.47Z"/><path class="cls-3" d="M135.51,75.31c.92,0,1.83,0,2.74,0a11.94,11.94,0,0,0,4.45-1,6.32,6.32,0,0,0,2.47-1.9,3.65,3.65,0,0,0,0-4.66,8.58,8.58,0,0,0-1.68-1.56A32,32,0,0,0,139.76,64c-1.66-.91-3.33-1.78-4.94-2.79a23,23,0,0,1-4.32-3.36,11.94,11.94,0,0,1-3.23-5.73,13.73,13.73,0,0,1-.21-4.61,15.26,15.26,0,0,1,2.32-6.69,17.22,17.22,0,0,1,5.75-5.48,25.13,25.13,0,0,1,8-3,33.05,33.05,0,0,1,8.42-.61,36.65,36.65,0,0,1,10.82,2.12c.55.2.5.12.38.69q-1.15,5.33-2.3,10.63c-.15.08-.24,0-.34-.07a27.89,27.89,0,0,0-8.26-2.24,19.06,19.06,0,0,0-4.89,0A9.39,9.39,0,0,0,143.42,44a5,5,0,0,0-1.6,1.42,3,3,0,0,0,0,3.61,6.26,6.26,0,0,0,1.42,1.44,25.27,25.27,0,0,0,3.4,2.1c1.49.81,3,1.58,4.46,2.43a27.83,27.83,0,0,1,4.6,3.24,13.66,13.66,0,0,1,3.84,5.41,12.49,12.49,0,0,1,.77,4,16.27,16.27,0,0,1-7.7,14.75,24.56,24.56,0,0,1-8.3,3.34,33.67,33.67,0,0,1-7.56.75l-.31,0a1.11,1.11,0,0,1-.14-.78c0-3,0-6.1,0-9.15,0-.15,0-.3,0-.45s-.08-.46-.41-.45C135.69,75.56,135.51,75.54,135.51,75.31Z"/><path class="cls-4" d="M187.76,77.47l-.5,0h-10c-.55,0-.44-.06-.62.45-.83,2.39-1.65,4.79-2.48,7.18-.17.49-.09.42-.59.42H159.67a.72.72,0,0,1,.12-.45q9-21.68,18.05-43.36l1.9-4.57a10.23,10.23,0,0,1,1.48-2.56A5.54,5.54,0,0,1,185,32.5h.23c.79-.07,1.58,0,2.37,0,.19,0,.27.1.3.27a2.12,2.12,0,0,1,0,.44V46.49c0,.14,0,.27,0,.4a6.58,6.58,0,0,1-.58,1.89c-1.36,3.84-2.75,7.68-4.13,11.52-.68,1.92-1.38,3.84-2.06,5.76-.2.55-.19.56.41.56,1.88,0,3.75,0,5.63,0,.24,0,.52-.07.69.21a1.84,1.84,0,0,1,.06.62v9.29A1,1,0,0,1,187.76,77.47Z"/><path class="cls-5" d="M98.3,85.54c.33-1.56.65-3,1-4.52q1.63-7.71,3.28-15.44,1.59-7.51,3.19-15l3-14.26c.25-1.17.49-2.34.74-3.52,0-.2.09-.34.36-.34h13.2l.17,0-.36,1.75q-1.47,7-3,13.95-1.92,9-3.83,18.08-1.56,7.32-3.1,14.65c-.29,1.39-.59,2.79-.89,4.18-.1.47-.1.47-.56.47H98.3Z"/><path class="cls-6" d="M187.76,77.47V66.74c.17-.16.39-.12.6-.12h3c.59,0,.61,0,.5-.58l-3-14c-.34-1.57-.7-3.13-1-4.71a.36.36,0,0,0-.11-.24c0-.19,0-.39,0-.58V33.06c0-.57,0-.54-.54-.55h-2a1.92,1.92,0,0,1,.79-.07h11.22c.36,0,.37,0,.44.34.16.75.31,1.5.46,2.25q1.33,6.4,2.68,12.81t2.63,12.68l3,14.52,2.1,10.08c0,.12,0,.24.06.35s-.2.08-.29.08h-12c-.34,0-.34,0-.42-.37l-1.53-7.3c-.08-.38-.08-.38-.46-.38h-5.63Z"/><path class="cls-7" d="M135.51,75.31c.05.09.12.18.25.13a1.34,1.34,0,0,1,.35,0c.2,0,.32.06.3.28s0,.24,0,.36V86.38a22.69,22.69,0,0,1-3-.11,44.06,44.06,0,0,1-7.65-1.33,37.14,37.14,0,0,1-4.11-1.33c-.4-.16-.35-.16-.27-.52l2.31-10.87c0-.1.06-.2.08-.3s.23.06.33.12A29.44,29.44,0,0,0,132.84,75C133.72,75.11,134.62,75.17,135.51,75.31Z"/><path class="cls-7" d="M137,75.47a.11.11,0,0,1-.1.07c-.05,0-.08-.05-.05-.09a.08.08,0,0,1,.11,0S137,75.45,137,75.47Z"/><path class="cls-2" d="M123.25,114.58V97.4h12.42v2H125.53v5.26H135v2h-9.5v5.85h10.54v2Z"/><path class="cls-2" d="M138.9,114.58V97.4H141v17.18Z"/><path class="cls-2" d="M152.8,110.58l2.17.27a5.29,5.29,0,0,1-1.91,3,6.44,6.44,0,0,1-7.89-.63,6.59,6.59,0,0,1-1.6-4.71,6.88,6.88,0,0,1,1.62-4.88,5.5,5.5,0,0,1,4.2-1.73,5.28,5.28,0,0,1,4.07,1.7,6.71,6.71,0,0,1,1.59,4.78c0,.12,0,.31,0,.56h-9.28a4.82,4.82,0,0,0,1.16,3.14,3.44,3.44,0,0,0,2.6,1.09,3.18,3.18,0,0,0,2-.61A4.06,4.06,0,0,0,152.8,110.58Zm-6.93-3.41h6.95a4.24,4.24,0,0,0-.8-2.36,3.23,3.23,0,0,0-2.61-1.22,3.37,3.37,0,0,0-2.44,1A3.87,3.87,0,0,0,145.87,107.17Z"/><path class="cls-2" d="M165.74,110l2.08.27a5.42,5.42,0,0,1-1.74,3.35,5.08,5.08,0,0,1-3.44,1.22,5.37,5.37,0,0,1-4.11-1.67,6.81,6.81,0,0,1-1.55-4.79,8.58,8.58,0,0,1,.67-3.53,4.65,4.65,0,0,1,2-2.27,6.07,6.07,0,0,1,3-.75,5.2,5.2,0,0,1,3.32,1,4.72,4.72,0,0,1,1.65,2.92l-2.05.31a3.47,3.47,0,0,0-1-1.89,2.67,2.67,0,0,0-1.8-.63,3.29,3.29,0,0,0-2.59,1.14,5.47,5.47,0,0,0-1,3.62,5.59,5.59,0,0,0,1,3.64,3.11,3.11,0,0,0,2.51,1.14,2.94,2.94,0,0,0,2.07-.76A3.76,3.76,0,0,0,165.74,110Z"/><path class="cls-2" d="M174.23,112.7l.3,1.86a7.43,7.43,0,0,1-1.59.19,3.5,3.5,0,0,1-1.78-.37,2,2,0,0,1-.89-.95,7.55,7.55,0,0,1-.26-2.49v-7.16h-1.55v-1.64H170V99.06l2.1-1.27v4.35h2.12v1.64h-2.12v7.28a3.51,3.51,0,0,0,.11,1.16.84.84,0,0,0,.36.41,1.43,1.43,0,0,0,.72.15A7.58,7.58,0,0,0,174.23,112.7Z"/><path class="cls-2" d="M176.27,114.58V102.14h1.9V104a5,5,0,0,1,1.34-1.75,2.34,2.34,0,0,1,1.35-.42,4.05,4.05,0,0,1,2.17.68l-.73,1.95a3,3,0,0,0-1.54-.45,2.08,2.08,0,0,0-1.25.41,2.35,2.35,0,0,0-.78,1.16,8,8,0,0,0-.35,2.46v6.51Z"/><path class="cls-2" d="M183.5,108.36a6.42,6.42,0,0,1,1.92-5.12,5.8,5.8,0,0,1,3.91-1.38,5.59,5.59,0,0,1,4.2,1.68,6.38,6.38,0,0,1,1.63,4.65,8.18,8.18,0,0,1-.72,3.77,5,5,0,0,1-2.1,2.14,6.1,6.1,0,0,1-3,.77,5.57,5.57,0,0,1-4.22-1.68A6.72,6.72,0,0,1,183.5,108.36Zm2.17,0a5.26,5.26,0,0,0,1,3.58,3.48,3.48,0,0,0,5.24,0,5.48,5.48,0,0,0,1-3.65,5.15,5.15,0,0,0-1.05-3.5,3.47,3.47,0,0,0-5.23,0A5.25,5.25,0,0,0,185.67,108.36Z"/><path class="cls-2" d="M197.63,114.58V102.14h1.9v1.77a4.46,4.46,0,0,1,4-2,5.2,5.2,0,0,1,2.07.4,3.21,3.21,0,0,1,1.41,1.06,4.23,4.23,0,0,1,.66,1.56,12.13,12.13,0,0,1,.11,2.05v7.65h-2.1V107a5.69,5.69,0,0,0-.25-1.92,2.06,2.06,0,0,0-.87-1,2.73,2.73,0,0,0-1.47-.38,3.42,3.42,0,0,0-2.33.85c-.65.57-1,1.65-1,3.25v6.79Z"/></svg>