<svg id="图层_1" data-name="图层 1" xmlns="http://www.w3.org/2000/svg" viewBox="0 0 248.24 146.45"><defs><style>.cls-1{fill:none;stroke:#bcbcbc;stroke-miterlimit:10;stroke-width:0.36px;}.cls-2{fill:#101a65;}.cls-3{fill:#002187;}.cls-4{fill:#002493;}.cls-5{fill:#081d76;}.cls-6{fill:#00279a;}.cls-7{fill:#02207f;}</style></defs><rect class="cls-1" x="0.18" y="0.18" width="247.89" height="146.09"/><path class="cls-2" d="M75,67.61c.73-1.84,1.43-3.6,2.12-5.36Q83,47.16,89,32.05a.61.61,0,0,0,0-.12c.15-.36.15-.36.51-.36h13.93c.05.19-.06.32-.12.46L96,49.71,81.59,84.16a1.89,1.89,0,0,0-.09.21c-.06.27-.24.32-.5.32H67.36c-.4,0-.4,0-.51-.44L63.94,73,56,42.45a17.17,17.17,0,0,0-.56-1.76,5.5,5.5,0,0,0-2.11-2.62A18,18,0,0,0,50,36.42a58.21,58.21,0,0,0-10.28-3.08c-.35-.07-.35-.08-.29-.43s.13-.74.18-1.11c0-.16.08-.24.25-.23H62.34a7.7,7.7,0,0,1,2.82.46,6,6,0,0,1,3.9,4.75c.85,4.39,1.67,8.78,2.5,13.17s1.71,9,2.56,13.48c.24,1.28.49,2.56.73,3.84C74.87,67.36,74.9,67.44,75,67.61Z"/><path class="cls-3" d="M135.28,74.45c.91,0,1.83,0,2.74,0a12,12,0,0,0,4.45-1,6.32,6.32,0,0,0,2.47-1.9,3.65,3.65,0,0,0,0-4.66,8.58,8.58,0,0,0-1.68-1.56,32,32,0,0,0-3.69-2.23c-1.66-.91-3.33-1.78-4.94-2.79a23,23,0,0,1-4.32-3.36A11.94,11.94,0,0,1,127,51.21a13.73,13.73,0,0,1-.21-4.61,15.26,15.26,0,0,1,2.32-6.69,17.19,17.19,0,0,1,5.74-5.48,25.28,25.28,0,0,1,8-3.05,33.05,33.05,0,0,1,8.42-.61,36.71,36.71,0,0,1,10.82,2.12c.55.21.5.12.37.69q-1.14,5.33-2.29,10.63c-.15.08-.24,0-.34-.07a27.89,27.89,0,0,0-8.26-2.24,19.06,19.06,0,0,0-4.89,0,9.33,9.33,0,0,0-3.52,1.17,5.1,5.1,0,0,0-1.61,1.42,3,3,0,0,0,0,3.61A6.26,6.26,0,0,0,143,49.56a24.66,24.66,0,0,0,3.4,2.1c1.49.81,3,1.58,4.46,2.43a27.34,27.34,0,0,1,4.59,3.24,13.46,13.46,0,0,1,3.84,5.41,12.23,12.23,0,0,1,.78,4,16.25,16.25,0,0,1-7.71,14.75,24.4,24.4,0,0,1-8.3,3.34,33.53,33.53,0,0,1-7.55.75l-.31,0c-.2-.23-.14-.51-.14-.78q0-4.58,0-9.15v-.45c0-.28-.08-.46-.41-.45C135.46,74.7,135.28,74.68,135.28,74.45Z"/><path class="cls-4" d="M187.52,76.61l-.49,0H177c-.55,0-.44-.06-.62.45-.83,2.39-1.65,4.79-2.48,7.18-.18.49-.09.42-.59.42H159.44a.66.66,0,0,1,.12-.45q9-21.68,18.05-43.36l1.9-4.57A10.23,10.23,0,0,1,181,33.73a5.51,5.51,0,0,1,3.75-2.09H185c.8-.07,1.59,0,2.38,0,.19,0,.27.1.3.27a2.12,2.12,0,0,1,0,.44V45.63c0,.14,0,.27,0,.4a6.58,6.58,0,0,1-.58,1.89c-1.36,3.84-2.75,7.68-4.13,11.52l-2.07,5.76c-.19.55-.19.56.42.56h5.63c.24,0,.52-.07.69.21a1.84,1.84,0,0,1,.06.62v9.29A1,1,0,0,1,187.52,76.61Z"/><path class="cls-5" d="M98.07,84.68c.33-1.56.64-3,1-4.52q1.64-7.71,3.28-15.44,1.59-7.51,3.19-15l3-14.26c.24-1.17.49-2.34.74-3.52,0-.2.09-.34.36-.34h13.2l.17,0-.36,1.75q-1.47,7-3,13.95-1.92,9-3.83,18.08Q114.3,72.7,112.76,80c-.3,1.4-.59,2.79-.89,4.18-.1.47-.1.47-.56.47H98.07Z"/><path class="cls-6" d="M187.52,76.61V65.88a.81.81,0,0,1,.6-.12h3c.59,0,.61,0,.49-.57q-1.49-7-3-14.05c-.34-1.57-.7-3.13-1-4.71a.29.29,0,0,0-.11-.24c0-.19,0-.39,0-.58V32.2c0-.57,0-.54-.53-.55h-2a2,2,0,0,1,.8-.07H197c.37,0,.38,0,.45.34.15.75.31,1.5.46,2.25L200.55,47l2.64,12.68,3,14.52,2.1,10.08.06.35c-.08.12-.2.08-.29.08h-12c-.34,0-.34,0-.42-.37L194.11,77c-.08-.38-.08-.38-.47-.38H188Z"/><path class="cls-7" d="M135.28,74.45c.05.09.12.18.24.13a1.49,1.49,0,0,1,.36,0c.2,0,.31.06.3.28s0,.24,0,.36V85.52a22.69,22.69,0,0,1-3-.11,44.33,44.33,0,0,1-7.66-1.33,37,37,0,0,1-4.1-1.33c-.4-.16-.35-.16-.28-.52q1.15-5.43,2.32-10.87c0-.1.05-.2.08-.3s.23.07.33.12a29.38,29.38,0,0,0,8.7,2.92C133.49,74.25,134.39,74.31,135.28,74.45Z"/><path class="cls-7" d="M136.74,74.61a.11.11,0,0,1-.1.07s-.08-.05-.06-.09a.1.1,0,0,1,.12,0S136.73,74.59,136.74,74.61Z"/><path class="cls-2" d="M133.91,115.72V96.89h6.49a15.72,15.72,0,0,1,3.35.27,6.48,6.48,0,0,1,2.77,1.35,7.64,7.64,0,0,1,2.22,3.22,12.44,12.44,0,0,1,.74,4.47A13,13,0,0,1,149,110a9.18,9.18,0,0,1-1.28,2.74,6.33,6.33,0,0,1-4,2.65,12.44,12.44,0,0,1-3,.32Zm2.49-2.22h4a9.84,9.84,0,0,0,2.92-.34,4.26,4.26,0,0,0,1.69-1,6,6,0,0,0,1.38-2.38,11.68,11.68,0,0,0,.49-3.63,8.77,8.77,0,0,0-1-4.55,4.89,4.89,0,0,0-2.35-2.12,9.69,9.69,0,0,0-3.23-.39h-4Z"/><path class="cls-2" d="M153,115.72V96.89h13.61v2.22H155.46v5.77h10.42v2.21H155.46v6.41H167v2.22Z"/><path class="cls-2" d="M170.36,115.72V96.89h7.07a8.75,8.75,0,0,1,3.46.57,4.44,4.44,0,0,1,2,1.76,4.57,4.57,0,0,1,.74,2.49A4.32,4.32,0,0,1,183,104a4.67,4.67,0,0,1-2,1.72,5,5,0,0,1,2.62,1.71,4.55,4.55,0,0,1,.92,2.85,5.43,5.43,0,0,1-.56,2.47,4.76,4.76,0,0,1-1.38,1.75,5.68,5.68,0,0,1-2.06.93,12.53,12.53,0,0,1-3,.31Zm2.49-10.92h4.08a9.4,9.4,0,0,0,2.37-.21,2.47,2.47,0,0,0,1.92-2.59,3,3,0,0,0-.45-1.65,2.27,2.27,0,0,0-1.29-1,10.42,10.42,0,0,0-2.86-.27h-3.77Zm0,8.7h4.69a10.85,10.85,0,0,0,1.7-.09,4.07,4.07,0,0,0,1.44-.51,2.78,2.78,0,0,0,.95-1.05,3.28,3.28,0,0,0,.37-1.59,3.13,3.13,0,0,0-.54-1.83,2.89,2.89,0,0,0-1.5-1.09,9.22,9.22,0,0,0-2.75-.31h-4.36Z"/><path class="cls-2" d="M188.44,115.72V96.89h2.49v18.83Z"/><path class="cls-2" d="M200.12,115.72V99.11h-6.21V96.89h14.93v2.22h-6.23v16.61Z"/></svg>