<svg id="图层_1" data-name="图层 1" xmlns="http://www.w3.org/2000/svg" viewBox="0 0 248.24 146.45"><defs><style>.cls-1{fill:none;stroke:#bcbcbc;stroke-miterlimit:10;stroke-width:0.36px;}.cls-2{fill:#00a551;}.cls-3{fill:#0071bb;}.cls-4{fill:#fff;}.cls-5{fill:#ec1c24;}</style></defs><title>22222</title><rect class="cls-1" x="0.18" y="0.18" width="247.89" height="146.09"/><path class="cls-2" d="M184.58,81.48c.42,12.44.83,25.3.21,37.95a17.15,17.15,0,0,1-8.09,12.65c-3.52,2.28-7.88,2.49-12.44,2.7l-16.49-.21L147.67,29a17.86,17.86,0,0,1,12.65-14.93c8.08-1,15.55-.62,24.05-.83l.41,5.39V78.57l-.21.21Z"/><path class="cls-3" d="M65.14,77.54V27.77a18.07,18.07,0,0,1,11-12.86c8.09-2.49,17.42-1,25.71-1.25.42,8.1,0,18.25.21,25.31l.42,64.9c-1,10,2.69,23.43-9.75,29-7.88,3.94-18.45,1.45-27.37,2.28l-.2-1.45V77.54Z"/><path class="cls-4" d="M65.14,79.61C68.46,84,73,87.28,78.62,87.49c6.84.63,15.76,1.24,20.32-5.18,3.11-3.32,1.25-7.88,1.87-12.23l-.21-7.88c-3.94-.83-7.47,0-12-.21-2.28,8.5,3.73,18-6,22.4a10.73,10.73,0,0,1-7.88-1.24C70.95,82.31,73,76.29,68,78l-2.9-.41Z"/><path class="cls-5" d="M143.31,20.51l.21,101c-1.45,4.77-5.18,10-10.37,11.82-7.88,2.69-17.63,1.45-26.33,1.45L106.4,28.39c.42-5,3.73-9.33,8.09-12,3.11-2.07,6.84-2.7,10.78-2.9H142.9Z"/><path class="cls-4" d="M141.65,62.19c.42,1.24,0,2.28.21,3.73-6.22-1.66-13.89-3.53-19.49,1-2.07,2.48-3.32,5-3.11,8.29A11.28,11.28,0,0,0,125.69,84c5.39,1.66,11,.21,16-1a6,6,0,0,1,0,3.32H117.81A12.33,12.33,0,0,1,108.48,79a12.76,12.76,0,0,1,2.07-12.65A12.1,12.1,0,0,1,120.5,62Z"/><path class="cls-4" d="M184.58,81.48a6.94,6.94,0,0,1-5.18,5.18h-29l-1-.41c0-8.29-.21-16.17.21-24.26H168c5.8.62,12.23-1.87,14.93,3.53a5.39,5.39,0,0,1-.83,5.81c-.83,1.45-2.7,1.66-3.11,2.69a8.59,8.59,0,0,1,5.6,4.77Zm-24.88-17a20.09,20.09,0,0,0-.2,7.88c4.36-.2,10,1.45,12.86-1.86,1-1.25.42-3.32-.21-4.36C168.82,63.23,163.84,65.1,159.69,64.47Zm11.2,11.4a54.61,54.61,0,0,0-11.61-.21,38.53,38.53,0,0,0,.41,8.5c4.15,0,8.71.62,12.44-1.25a4.42,4.42,0,0,0,1.25-4.14A4.34,4.34,0,0,0,170.89,75.88Z"/></svg>