<svg id="图层_1" data-name="图层 1" xmlns="http://www.w3.org/2000/svg" viewBox="0 0 248.24 146.45"><defs><style>.cls-1,.cls-3{fill:#fff;}.cls-1{stroke:#bcbcbc;stroke-miterlimit:10;stroke-width:0.36px;}.cls-2{fill:#004a97;}.cls-4{fill:#231f20;}</style></defs><rect class="cls-1" x="0.18" y="0.18" width="247.89" height="146.09"/><path class="cls-2" d="M130.9,82.06c17.59.08,33.64-14.34,33.64-31.89,0-19.19-16-32.45-33.64-32.44H115.77C98,17.72,83.32,31,83.32,50.17c0,17.55,14.65,32,32.44,31.89Z"/><path class="cls-3" d="M122.52,67.26V32.41a18.65,18.65,0,0,1,0,34.85M97.18,49.84a18.7,18.7,0,0,1,12-17.42V67.26a18.7,18.7,0,0,1-12-17.42m18.67-29.45A29.45,29.45,0,1,0,145.3,49.84a29.46,29.46,0,0,0-29.45-29.45"/><path class="cls-4" d="M50.42,104c0,2.62,1.88,2.93,3.54,2.93,7.35,0,9.76-5.54,9.76-10.61,0-6.36-4.08-11-10.64-11-1.4,0-2,.1-2.66.14ZM47.09,88c0-3.06-1.6-2.86-3.12-2.89v-.88c1.32.07,2.68.07,4,.07s3.37-.07,5.88-.07c8.81,0,13.61,5.88,13.61,11.91,0,3.37-2,11.83-14,11.83-1.73,0-3.34-.07-4.93-.07s-3,0-4.56.07v-.88c2-.21,3-.27,3.12-2.59Z"/><path class="cls-4" d="M72.3,87.25a1.67,1.67,0,0,1,0-3.34h0A1.67,1.67,0,0,1,74,85.55h0a1.7,1.7,0,0,1-1.66,1.7m-3.64,19.9h.65c1,0,1.63,0,1.63-1.13V96.8c0-1.49-.51-1.7-1.77-2.38v-.54c1.6-.48,3.51-1.12,3.64-1.22a1.18,1.18,0,0,1,.61-.18c.17,0,.24.21.24.48v13c0,1.13.75,1.13,1.7,1.13H76V108c-1.16,0-2.35-.07-3.57-.07s-2.45,0-3.71.07Z"/><path class="cls-4" d="M79.17,97c0-1.26-.38-1.59-2-2.24v-.65a45.45,45.45,0,0,0,4.49-1.63c.1,0,.2.07.2.34V95c1.94-1.39,3.61-2.55,5.89-2.55,2.89,0,3.91,2.11,3.91,4.76V106c0,1.13.75,1.13,1.7,1.13H94V108c-1.19,0-2.38-.07-3.61-.07s-2.45,0-3.68.07v-.88h.62c1,0,1.63,0,1.63-1.13V97.22c0-1.94-1.18-2.89-3.12-2.89a9.1,9.1,0,0,0-4,1.64v10c0,1.13.75,1.13,1.7,1.13h.61V108H80.6c-1.22,0-2.45,0-3.68.07v-.88h.62c.95,0,1.63,0,1.63-1.13Z"/><path class="cls-4" d="M102.61,97.56c.85,0,1-.44,1-.85A2.88,2.88,0,0,0,101,93.59a2.38,2.38,0,0,0-.38,0c-2.07,0-3.5,1.53-3.91,4Zm-6,1.09a8.36,8.36,0,0,0,0,2c.2,3.23,2.28,5.88,5,5.88a6.54,6.54,0,0,0,4.59-2.28l.47.47c-1.56,2.08-3.5,3.84-6.29,3.84-5.41,0-6.5-5.24-6.5-7.41,0-6.67,4.49-8.64,6.87-8.64,2.76,0,5.72,1.74,5.75,5.34,0,.2,0,.41,0,.61l-.31.21Z"/><path class="cls-4" d="M107.27,107.15h.92c1,0,1.63,0,1.63-1.13V96.47c0-1-1.26-1.26-1.77-1.53v-.51c2.48-1.06,3.84-1.94,4.15-1.94s.3.1.3.45V96h.07c.84-1.33,2.28-3.51,4.35-3.51a1.85,1.85,0,0,1,1.94,1.76v0A1.65,1.65,0,0,1,117.3,96h0c-1.05,0-1.05-.82-2.24-.82A2.88,2.88,0,0,0,112.54,98v8c0,1.13.68,1.13,1.63,1.13h1.9V108c-1.87,0-3.3-.07-4.76-.07s-2.82,0-4,.07Z"/><path class="cls-4" d="M120.36,103.3c.44,2.25,1.8,4.15,4.29,4.15,2,0,2.75-1.23,2.75-2.42,0-4-7.41-2.72-7.41-8.2,0-1.91,1.53-4.35,5.27-4.35a9,9,0,0,1,3.88,1l.24,3.47h-.78c-.34-2.14-1.53-3.36-3.71-3.36a2.39,2.39,0,0,0-2.64,2.11s0,.09,0,.13c0,4,7.89,2.75,7.89,8.09,0,2.25-1.8,4.63-5.85,4.63a9,9,0,0,1-4.15-1.15l-.38-3.91Z"/><path class="cls-4" d="M160.84,90.44H160c-.65-4-3.47-5.58-7.28-5.58s-9.59,2.62-9.59,10.78c0,6.87,4.9,11.8,10.13,11.8a6.93,6.93,0,0,0,6.84-5.89l.78.2-.78,5a19,19,0,0,1-7.52,1.8c-8,0-13-5.13-13-12.79,0-7,6.22-12,12.89-12a24.5,24.5,0,0,1,8,1.81Z"/><path class="cls-4" d="M162.06,107.15h.64c1,0,1.63,0,1.63-1.13V87.08c0-2.21-.51-2.28-1.8-2.65v-.54a21,21,0,0,0,3.5-1.46,3.49,3.49,0,0,1,.75-.37c.21,0,.28.2.28.48V106c0,1.13.75,1.13,1.7,1.13h.57V108c-1.15,0-2.34-.07-3.57-.07s-2.45,0-3.71.07Z"/><path class="cls-4" d="M183.9,106.16c0,.62.37.65,1,.65h1.36v.71a35.77,35.77,0,0,0-4.9,1l-.17-.1v-2.75c-2,1.67-3.6,2.85-6,2.85a3.66,3.66,0,0,1-3.75-3.58,3,3,0,0,1,0-.42V95.79c0-.88-.13-1.74-2-1.9v-.65c1.22,0,3.94-.24,4.38-.24s.38.24.38,1v8.78c0,1,0,3.94,3,3.94,1.16,0,2.68-.88,4.11-2.07V95.48c0-.68-1.63-1-2.86-1.39v-.61c3.06-.2,5-.48,5.3-.48s.27.24.27.62Z"/><path class="cls-4" d="M190.67,104.19a3.66,3.66,0,0,0,3.5,3.47c3.64,0,5.17-3.58,5.17-6.6,0-3.67-2.78-6.73-5.44-6.73a5.2,5.2,0,0,0-3.23,1.6Zm0-9.25c1.36-1.16,3.2-2.45,5.07-2.45,3.94,0,6.32,3.44,6.32,7.14,0,4.45-3.27,8.91-8.13,8.91a10,10,0,0,1-4.72-1.19l-1,.78-.71-.37a40.92,40.92,0,0,0,.48-6.06V87.08c0-2.21-.51-2.28-1.81-2.65v-.54a21,21,0,0,0,3.5-1.46,3.49,3.49,0,0,1,.75-.37c.2,0,.27.2.27.47Z"/><path class="cls-4" d="M43.93,127.81h.26c.67,0,1.37-.09,1.37-1.06v-9.69c0-1-.7-1.06-1.37-1.06h-.26v-.56c.72,0,1.83.07,2.74.07s2-.07,2.9-.07V116h-.26c-.66,0-1.37.09-1.37,1.06v9.69c0,1,.71,1.06,1.37,1.06h.26v.56c-.89,0-2-.08-2.92-.08s-2,.08-2.72.08Z"/><path class="cls-4" d="M49.49,128.28v-.4h-.18c-.66,0-1.45-.11-1.45-1.14v-9.69c0-1,.79-1.14,1.45-1.14h.18v-.39c-.85,0-1.93.08-2.82.08s-1.94-.07-2.66-.08v.39h.18c.66,0,1.45.12,1.45,1.14v9.69c0,1-.79,1.14-1.45,1.14H44v.4c.72,0,1.76-.07,2.64-.07s2,.07,2.84.07m.08.16c-.89,0-2-.07-2.92-.07s-2,.07-2.72.07h-.08v-.71h.34c.67,0,1.28-.07,1.29-1V117c0-.91-.62-1-1.29-1h-.34v-.72h.08c.73,0,1.84.07,2.74.07s2-.07,2.9-.07h.08V116H49.3c-.67,0-1.29.07-1.29,1v9.69c0,.91.62,1,1.29,1h.34v.71Z"/><path class="cls-4" d="M62.29,124.72h0v-6.94A1.53,1.53,0,0,0,61,116a1.67,1.67,0,0,0-.32,0H60.3v-.56c.87,0,1.72.07,2.59.07s1.52-.07,2.28-.07V116H64.9c-.78,0-1.65.15-1.65,2.35v8.42a13,13,0,0,0,.11,1.87h-.7L53.13,118v7.62c0,1.61.31,2.17,1.74,2.17h.32v.56c-.8,0-1.59-.08-2.39-.08s-1.68.08-2.52.08v-.56h.26c1.28,0,1.67-.87,1.67-2.35v-7.8A1.66,1.66,0,0,0,50.53,116h-.25v-.56c.7,0,1.42.07,2.12.07s1.09-.07,1.65-.07Z"/><path class="cls-4" d="M62.25,124.68Zm0,0,.06-.05Zm.37,3.84h.61a11.87,11.87,0,0,1-.1-1.79V118.3c0-2.22.93-2.43,1.73-2.43h.19v-.39c-.73,0-1.46.08-2.2.08s-1.67-.07-2.51-.08v.39h.32a1.62,1.62,0,0,1,1.7,1.54,1.31,1.31,0,0,1,0,.28v7h0l-.06.06-8.23-9.31c-.55,0-1.09.08-1.65.08s-1.38-.07-2-.08v.39h.16a1.74,1.74,0,0,1,1.76,1.72v7.82c0,1.48-.41,2.43-1.75,2.43H50.4v.4c.8,0,1.63-.07,2.44-.07s1.54.07,2.3.07v-.39h-.23c-1.46,0-1.82-.63-1.82-2.25v-7.83Zm.7.16h-.77l-9.39-10.47v7.42c0,1.61.26,2.07,1.66,2.08h.4v.71h-.08c-.8,0-1.6-.07-2.39-.07s-1.68.07-2.52.07h-.08v-.71h.34c1.23,0,1.57-.79,1.59-2.27v-7.79a1.59,1.59,0,0,0-1.6-1.58h-.33v-.71h.08c.71,0,1.43.07,2.12.07a13.92,13.92,0,0,1,1.71,0l8.14,9.16v-6.81a1.45,1.45,0,0,0-1.53-1.66h-.49v-.71h.08c.87,0,1.73.07,2.59.07s1.51-.07,2.28-.07h.08v.71H64.9c-.77,0-1.55.09-1.57,2.27v8.43a12.68,12.68,0,0,0,.11,1.85v.09Z"/><path class="cls-4" d="M68,116.37c-1.39,0-1.44.33-1.72,1.68h-.55c.07-.52.17-1,.22-1.57a11.72,11.72,0,0,0,.11-1.57h.44c.15.55.61.53,1.11.53h9.55c.5,0,1,0,1-.57l.45.08c-.08.5-.15,1-.2,1.5s0,1,0,1.5l-.56.21c0-.68-.13-1.78-1.37-1.78h-3v9.85c0,1.43.65,1.59,1.53,1.59h.35v.56c-.72,0-2-.08-3-.08s-2.41.08-3.13.08v-.56h.35c1,0,1.54-.09,1.54-1.55v-9.89Z"/><path class="cls-4" d="M75.24,128.44c-.73,0-2-.07-3-.07s-2.4.07-3.13.07H69v-.71h.43c1,0,1.44,0,1.46-1.47v-9.81h-3v-.16H71v10c0,1.48-.6,1.63-1.62,1.64h-.27v.39c.73,0,2-.07,3-.07s2.2.07,2.93.07v-.39h-.27c-.89,0-1.61-.22-1.61-1.67v-9.93h3.12c1.24,0,1.4,1.06,1.44,1.75l.4-.15v-1.45a10.26,10.26,0,0,1,.19-1.42H78c-.09.54-.6.56-1.07.56H67.47c-.44,0-.91,0-1.08-.54h-.31a10.81,10.81,0,0,1-.11,1.5c0,.51-.14,1-.2,1.49h.39c.25-1.29.4-1.71,1.79-1.69v.16c-1.37,0-1.34.25-1.64,1.62v.06H65.6V118c.07-.52.17-1,.22-1.57a11.69,11.69,0,0,0,.11-1.56v-.08h.59v.06c.13.47.47.47,1,.48h9.64c.51,0,.89,0,.92-.5v-.08h.09l.52.08V115c-.07.5-.14,1-.2,1.49a12.35,12.35,0,0,0,0,1.49v0h0l-.65.24v-.11c0-.69-.12-1.7-1.29-1.7h-3v9.77c0,1.39.57,1.49,1.45,1.51h.43v.71Z"/><path class="cls-4" d="M79.14,127.81h.26c.67,0,1.37-.09,1.37-1.06v-9.69c0-1-.7-1.06-1.37-1.06h-.26v-.56c1.13,0,3,.07,4.6.07s3.48-.07,4.74-.07v2.83l-.55.15c-.09-1.2-.31-2.16-2.26-2.16H83.14v4.85h2.2c1.11,0,1.35-.63,1.46-1.63h.56c0,.72-.06,1.45-.06,2.17s0,1.41.06,2.11l-.56.11c-.11-1.11-.16-1.83-1.44-1.83H83.14v4.31c0,1.2,1.07,1.2,2.25,1.2,2.22,0,3.2-.15,3.76-2.25l.52.13c-.24,1-.46,2-.63,2.95-1.19,0-3.32-.08-5-.08s-3.86.08-4.92.08Z"/><path class="cls-4" d="M89,128.28c.16-.93.38-1.87.6-2.8l-.37-.09c-.55,2.07-1.63,2.26-3.81,2.24-1.17,0-2.33,0-2.34-1.29V122h2.3c1.29,0,1.42.76,1.51,1.82l.4-.09c0-.68-.05-1.36-.05-2s0-1.39.05-2.09h-.4c-.1,1-.4,1.64-1.53,1.63h-2.3v-5h2.65c1.93,0,2.24,1,2.33,2.14l.4-.11c0-.52-.06-1.19-.06-1.81v-.88c-1.26,0-3.13.08-4.66.08s-3.39-.07-4.53-.08V116h.18c.66,0,1.45.12,1.45,1.14v9.69c0,1-.79,1.14-1.45,1.14h-.18v.39c1.08,0,3.22-.07,4.84-.07s3.72.07,4.91.07m.07.16c-1.19,0-3.32-.07-5-.07s-3.86.07-4.92.07H79v-.71h.34c.67,0,1.28-.07,1.29-1v-9.69c0-.9-.62-1-1.29-1H79v-.71h.08c1.13,0,3,.07,4.6.07s3.48-.07,4.74-.07h.08v1.08a18.35,18.35,0,0,0,.06,1.87v.07h-.06l-.65.17v-.09c-.11-1.2-.27-2.07-2.17-2.09H83.22V121h2.12c1.07,0,1.26-.55,1.38-1.55v-.07h.71v.09c0,.72-.06,1.44-.06,2.16s0,1.4.06,2.1v.07h-.07l-.64.13v-.09c-.12-1.13-.13-1.75-1.36-1.76H83.22v4.23c0,1.13,1,1.12,2.18,1.13,2.23,0,3.12-.12,3.68-2.2v-.07h.08l.59.15v.08c-.24,1-.47,2-.63,2.94v.06Z"/><path class="cls-4" d="M94.54,121.7h.9c1.85,0,2.85-.7,2.85-2.88a2.52,2.52,0,0,0-2.33-2.7,2.29,2.29,0,0,0-.37,0,9.26,9.26,0,0,0-1,.07Zm-2.37-4.29c0-1.35-.74-1.41-1.32-1.41h-.33v-.56c.59,0,1.73.07,2.87.07s2-.07,3-.07c2.33,0,4.4.63,4.4,3.26a3.48,3.48,0,0,1-2.58,3.3l3.16,4.74a2.06,2.06,0,0,0,1.8,1.11v.56c-.61,0-1.21-.08-1.82-.08s-1.17.08-1.73.08a51,51,0,0,1-3.85-6H94.54v4c0,1.43.66,1.48,1.51,1.48h.33v.56c-1,0-2.13-.08-3.18-.08-.89,0-1.76.08-2.68.08v-.56h.33c.69,0,1.32-.32,1.32-1Z"/><path class="cls-4" d="M95.44,121.62c1.83,0,2.76-.65,2.77-2.8A2.45,2.45,0,0,0,96,116.19h-.37a8.4,8.4,0,0,0-1,.07v5.36Zm-.9.16h-.08v-5.67h.07a7.55,7.55,0,0,1,1.06-.07,2.61,2.61,0,0,1,2.78,2.43,2,2,0,0,1,0,.35c0,2.21-1.07,3-2.93,3Zm0,.51H95.8a56.62,56.62,0,0,0,3.79,6c.56,0,1.16-.07,1.73-.07s1.16.06,1.73.07v-.4a2.14,2.14,0,0,1-1.78-1.14l-3.22-4.82h.09a3.41,3.41,0,0,0,2.52-3.18c0-2.57-2-3.17-4.32-3.18-1,0-1.87.08-3,.08s-2.19-.07-2.79-.08V116h.25c.58,0,1.39.1,1.39,1.49v9.4c0,.74-.7,1.08-1.39,1.08h-.2v.39c.89,0,1.73-.07,2.6-.07s2.08.07,3.11.07v-.39h-.26c-.84,0-1.6-.1-1.6-1.56v-4Zm8.62,6.16c-.62,0-1.21-.07-1.82-.07a15.44,15.44,0,0,1-1.8,0,52.12,52.12,0,0,1-3.83-6h-1.1v3.88c0,1.39.58,1.38,1.44,1.4h.42v.71h-.08c-1.06,0-2.13-.07-3.18-.07-.88,0-1.75.07-2.68.07h-.08v-.71h.41c.67,0,1.23-.29,1.23-.92v-9.4c0-1.31-.66-1.3-1.23-1.33h-.41v-.72h.08c.6,0,1.74.07,2.87.07s2-.07,3-.07c2.33,0,4.48.65,4.48,3.34A3.56,3.56,0,0,1,98.33,122l3.11,4.65a2,2,0,0,0,1.74,1.07h.07v.7Z"/><path class="cls-4" d="M115.73,124.72h0v-6.94a1.53,1.53,0,0,0-1.3-1.73,1.61,1.61,0,0,0-.31,0h-.4v-.56c.87,0,1.72.07,2.59.07s1.51-.07,2.28-.07V116h-.28c-.77,0-1.65.15-1.65,2.35v8.42a13,13,0,0,0,.11,1.87h-.7L106.57,118v7.62c0,1.61.31,2.17,1.74,2.17h.32v.56c-.79,0-1.59-.08-2.38-.08s-1.69.08-2.52.08v-.56H104c1.28,0,1.67-.87,1.67-2.35v-7.8A1.66,1.66,0,0,0,104,116h-.24v-.56c.7,0,1.42.07,2.12.07s1.1-.07,1.65-.07Z"/><path class="cls-4" d="M115.68,124.68Zm0,0,0-.05Zm.37,3.84h.61a11.87,11.87,0,0,1-.1-1.79V118.3c0-2.22.94-2.42,1.73-2.43h.2v-.39c-.73,0-1.46.08-2.19.08s-1.68-.07-2.51-.08v.39h.32a1.62,1.62,0,0,1,1.7,1.54,1.31,1.31,0,0,1,0,.28v7h0l-.06.06-8.23-9.31c-.55,0-1.09.08-1.65.08s-1.38-.07-2-.08v.39H104a1.74,1.74,0,0,1,1.76,1.72v7.81c0,1.49-.42,2.43-1.74,2.44h-.18v.39c.8,0,1.63-.07,2.44-.07s1.55.07,2.31.07v-.39h-.24c-1.46,0-1.82-.63-1.83-2.25v-7.83Zm.7.16H116l-9.39-10.47v7.42c0,1.61.27,2.07,1.66,2.08h.4v.71h-.08c-.8,0-1.6-.07-2.39-.07s-1.68.07-2.51.07h-.09v-.71H104c1.22,0,1.57-.79,1.59-2.27v-7.79a1.58,1.58,0,0,0-1.58-1.58h-.35v-.72h.09c.7,0,1.43.07,2.12.07a13.76,13.76,0,0,1,1.7,0l8.14,9.16v-6.81a1.45,1.45,0,0,0-1.53-1.66h-.49v-.72h.08c.88,0,1.73.07,2.6.07s1.51-.07,2.28-.07h.08v.72h-.36c-.76,0-1.55.09-1.57,2.27v8.43a12.9,12.9,0,0,0,.11,1.86v.09Z"/><path class="cls-4" d="M124.3,117.52h0l-1.72,5.24H126Zm-2.7,8.2a7.18,7.18,0,0,0-.41,1.44c0,.56.78.65,1.39.65h.2v.56c-.74,0-1.5-.08-2.24-.08a16.15,16.15,0,0,0-2,.08v-.56h.11a1.67,1.67,0,0,0,1.61-1.21l3-8.49a15.58,15.58,0,0,0,.69-2.3,9.53,9.53,0,0,0,1.68-.79h.15a.14.14,0,0,1,.13.06l.17.46,3.4,9.68c.22.65.44,1.33.68,1.89a1.18,1.18,0,0,0,1.23.74h.11v.56c-.83,0-1.66-.08-2.55-.08s-1.84,0-2.78.08v-.56h.2c.42,0,1.15-.08,1.15-.54a5.69,5.69,0,0,0-.38-1.34l-.72-2.15h-4.2Z"/><path class="cls-4" d="M124.22,117.54Zm-1.57,5.13h3.24l-1.61-5Zm-.22.16,1.77-5.4h.1v.08h0v-.08h0l1.76,5.4Zm3.79,5.44c.91,0,1.81-.07,2.7-.07s1.66,0,2.47.07v-.39h0a1.25,1.25,0,0,1-1.3-.79c-.24-.56-.47-1.24-.69-1.89l-3.4-9.67c-.06-.15-.11-.31-.16-.45h-.11a6.62,6.62,0,0,1-1.65.74,15.35,15.35,0,0,1-.69,2.31l-3,8.5a1.75,1.75,0,0,1-1.68,1.26h0v.39c.63,0,1.28-.07,1.92-.07s1.45,0,2.15.07v-.39h-.12c-.6,0-1.45-.07-1.47-.73a7.46,7.46,0,0,1,.41-1.47h0l.61-2h4.32l.74,2.2a5.83,5.83,0,0,1,.37,1.36c0,.57-.81.6-1.23.61h-.12Zm5.24.16c-.83,0-1.66-.07-2.54-.07s-1.83,0-2.78.07H126v-.73h.28c.43,0,1.06-.09,1.07-.45A6,6,0,0,0,127,126l-.71-2.09h-4.08l-.57,1.87a7.7,7.7,0,0,0-.41,1.42c0,.45.7.56,1.31.56h.29v.73h-.09c-.74,0-1.49-.07-2.23-.07a18.44,18.44,0,0,0-2,.07h-.09v-.73h.2a1.58,1.58,0,0,0,1.53-1.14l3-8.5a21.35,21.35,0,0,0,.74-2.35,9.53,9.53,0,0,0,1.68-.79.54.54,0,0,1,.18,0,.23.23,0,0,1,.2.11l.17.47,3.41,9.68c.22.65.44,1.33.68,1.88a1.08,1.08,0,0,0,1.15.69h.19v.73Z"/><path class="cls-4" d="M132.27,116.37c-1.39,0-1.44.33-1.72,1.68H130c.07-.52.17-1,.23-1.57a11.72,11.72,0,0,0,.11-1.57h.44c.15.55.61.53,1.11.53h9.55c.5,0,1,0,1-.57l.44.08c-.07.5-.15,1-.2,1.5s0,1,0,1.5l-.55.21c0-.68-.13-1.78-1.37-1.78h-3v9.85c0,1.43.65,1.59,1.53,1.59h.35v.56c-.72,0-2-.08-3-.08s-2.41.08-3.13.08v-.56h.35c1,0,1.54-.09,1.54-1.55v-9.89Z"/><path class="cls-4" d="M139.56,128.44c-.73,0-2-.07-3-.07s-2.41.07-3.13.07h-.08v-.71h.43c1,0,1.43,0,1.46-1.47v-9.81h-3v-.16h3.12v10c0,1.48-.6,1.63-1.62,1.63h-.27v.4c.73,0,2-.07,3.05-.07s2.2.07,2.93.07v-.4h-.27c-.89,0-1.61-.22-1.62-1.67v-9.93h3.12c1.24,0,1.4,1.06,1.44,1.75l.4-.15v-1.45a10.26,10.26,0,0,1,.19-1.42h-.28c-.08.54-.6.56-1.07.56h-9.64c-.44,0-.91,0-1.08-.54h-.3a10.81,10.81,0,0,1-.11,1.5,10.48,10.48,0,0,1-.21,1.49h.4c.24-1.29.41-1.71,1.79-1.69v.16c-1.37,0-1.34.25-1.64,1.62v.06h-.71V118c.08-.52.17-1,.22-1.57a11.69,11.69,0,0,0,.11-1.56v-.08h.59v.06c.13.47.47.47.95.48h9.64c.51,0,.89,0,.92-.5v-.09h.09l.53.08v.08c-.08.5-.14,1-.2,1.49a12.35,12.35,0,0,0,0,1.49V118h-.05l-.65.24v-.11c0-.69-.12-1.7-1.29-1.7h-3v9.77c0,1.39.57,1.49,1.45,1.51h.44v.71Z"/><path class="cls-4" d="M143.56,127.81h.25c.67,0,1.37-.09,1.37-1.06v-9.69c0-1-.7-1.06-1.37-1.06h-.25v-.56c.72,0,1.83.07,2.73.07s2-.07,2.91-.07V116H149c-.67,0-1.38.09-1.38,1.06v9.69c0,1,.71,1.06,1.38,1.06h.25v.56c-.89,0-2-.08-2.92-.08s-2,.08-2.72.08Z"/><path class="cls-4" d="M149.12,128.28v-.39H149c-.66,0-1.45-.11-1.45-1.14v-9.69c0-1,.79-1.14,1.45-1.14h.17v-.39c-.85,0-1.92.08-2.83.08s-1.94-.07-2.65-.08v.39h.18c.66,0,1.45.12,1.45,1.14v9.69c0,1-.79,1.14-1.45,1.14h-.18v.39c.71,0,1.76-.07,2.64-.07s2,.07,2.84.07m.08.16c-.9,0-2-.07-2.92-.07s-2,.07-2.72.07h-.08v-.71h.34c.67,0,1.29-.07,1.29-1V117c0-.9-.62-1-1.29-1h-.34v-.71h.08c.72,0,1.83.07,2.73.07s2-.07,2.91-.07h.08V116H149c-.68,0-1.29.08-1.3,1v9.69c0,.91.62,1,1.3,1h.33v.71Z"/><path class="cls-4" d="M156.87,127.83c3.59,0,4.21-3.17,4.21-5.86s-1.45-6-4.53-6c-3.24,0-4.2,2.89-4.2,5.36,0,3.31,1.52,6.48,4.52,6.48m-.28-12.66c3.95,0,7.09,2.45,7.09,6.39a6.79,6.79,0,0,1-6.46,7.09h-.54c-3.93,0-6.93-2.66-6.93-6.64a6.73,6.73,0,0,1,6.63-6.83h.2"/><path class="cls-4" d="M152.26,121.35c0-2.49,1-5.45,4.28-5.45s4.61,3.34,4.62,6.06-.64,5.94-4.3,5.94v-.16c3.52,0,4.13-3.09,4.14-5.79s-1.44-5.9-4.45-5.9c-3.17,0-4.11,2.82-4.12,5.29,0,3.3,1.51,6.39,4.44,6.4v.16c-3.07,0-4.6-3.22-4.6-6.56m-2.59.65a6.83,6.83,0,0,1,6.75-6.91h.16v.16a6.66,6.66,0,0,0-6.75,6.57V122c0,3.94,3,6.56,6.85,6.56a6.71,6.71,0,0,0,6.92-6.49,4.34,4.34,0,0,0,0-.51c0-3.89-3.1-6.3-7-6.3v-.16c4,0,7.16,2.48,7.17,6.46a6.88,6.88,0,0,1-6.58,7.17h-.49c-4,0-7-2.7-7-6.72"/><path class="cls-4" d="M176.14,124.72h0v-6.94a1.53,1.53,0,0,0-1.3-1.73,1.71,1.71,0,0,0-.32,0h-.4v-.56c.87,0,1.72.07,2.59.07s1.52-.07,2.28-.07V116h-.28c-.78,0-1.65.15-1.65,2.35v8.42a11.67,11.67,0,0,0,.11,1.87h-.7L167,118v7.62c0,1.61.31,2.17,1.74,2.17H169v.56c-.8,0-1.59-.08-2.39-.08s-1.69.08-2.52.08v-.56h.26c1.28,0,1.67-.87,1.67-2.35v-7.8a1.66,1.66,0,0,0-1.66-1.66h-.27v-.56c.7,0,1.43.07,2.13.07s1.09-.07,1.65-.07Z"/><path class="cls-4" d="M176.1,124.68Zm0,0,.06-.05Zm.38,3.84h.6a13.33,13.33,0,0,1-.09-1.79V118.3c0-2.22.94-2.42,1.73-2.43h.2v-.39c-.73,0-1.46.08-2.2.08s-1.67-.07-2.5-.08v.39h.32a1.62,1.62,0,0,1,1.7,1.54,1.31,1.31,0,0,1,0,.28v7h0l-.06.06-8.24-9.31c-.54,0-1.09.08-1.65.08s-1.38-.07-2.05-.08v.39h.17a1.75,1.75,0,0,1,1.76,1.74h0v7.8c0,1.48-.41,2.43-1.74,2.43h-.18v.39c.81,0,1.63-.07,2.44-.07s1.54.07,2.31.07v-.39h-.24c-1.45,0-1.82-.63-1.82-2.25v-7.83Zm.7.16h-.77L167,118.21v7.42c0,1.61.27,2.07,1.66,2.08h.4v.72H169c-.8,0-1.6-.07-2.39-.07s-1.68.07-2.52.07H164v-.72h.34c1.22,0,1.57-.79,1.59-2.26v-7.8a1.58,1.58,0,0,0-1.58-1.58H164v-.71h.08c.71,0,1.43.07,2.13.07a13.92,13.92,0,0,1,1.71,0l8.13,9.16v-6.81a1.45,1.45,0,0,0-1.53-1.66h-.48v-.71h.08c.87,0,1.73.07,2.59.07s1.51-.07,2.28-.07h.08v.71h-.36c-.76,0-1.55.09-1.57,2.27v8.43a12.9,12.9,0,0,0,.11,1.86v.09Z"/><path class="cls-4" d="M184.71,117.52h0L183,122.76h3.47Zm-2.7,8.2a8.14,8.14,0,0,0-.41,1.44c0,.56.78.65,1.39.65h.2v.56c-.74,0-1.5-.08-2.24-.08a16.15,16.15,0,0,0-2,.08v-.56h.1a1.67,1.67,0,0,0,1.61-1.21l3-8.49a14.42,14.42,0,0,0,.68-2.3A10.19,10.19,0,0,0,186,115a.38.38,0,0,1,.15,0,.12.12,0,0,1,.13.06l.17.46,3.4,9.68c.22.65.45,1.33.69,1.89a1.17,1.17,0,0,0,1.22.74h.11v.56c-.83,0-1.67-.08-2.56-.08s-1.83,0-2.78.08v-.56h.2c.42,0,1.15-.08,1.15-.54a5.69,5.69,0,0,0-.38-1.34l-.72-2.15h-4.2Z"/><path class="cls-4" d="M184.64,117.54Zm-1.57,5.13h3.24l-1.61-5Zm-.23.16,1.78-5.4h.09v.08h0v-.08h.06l1.75,5.4Zm3.78,5.45c.92,0,1.82-.07,2.7-.07s1.67,0,2.47.07v-.39h0a1.27,1.27,0,0,1-1.29-.79c-.25-.56-.46-1.24-.69-1.89l-3.41-9.68-.15-.44h-.1a6.78,6.78,0,0,1-1.65.74,15.35,15.35,0,0,1-.69,2.31l-3,8.5a1.76,1.76,0,0,1-1.69,1.26h0v.39c.64,0,1.27-.07,1.92-.07s1.45,0,2.16.07v-.39H183c-.6,0-1.44-.07-1.47-.73a8.45,8.45,0,0,1,.41-1.47h0l.61-2h4.32l.74,2.2a5.83,5.83,0,0,1,.37,1.36c0,.57-.8.6-1.22.61h-.13Zm5.25.16c-.83,0-1.67-.07-2.55-.07s-1.83,0-2.77.07h-.08v-.72h.28c.43,0,1.07-.1,1.07-.45a5.94,5.94,0,0,0-.37-1.31l-.7-2.09h-4.08l-.57,1.87a7.67,7.67,0,0,0-.4,1.42c0,.46.69.57,1.3.57h.28v.72h-.08c-.74,0-1.5-.07-2.23-.07a18.53,18.53,0,0,0-2,.07h-.08v-.72h.18a1.61,1.61,0,0,0,1.54-1.15l3-8.5a21.3,21.3,0,0,0,.73-2.35,9.62,9.62,0,0,0,1.69-.79h.17a.21.21,0,0,1,.2.11c.06.14.11.31.17.46l3.41,9.68c.22.65.44,1.33.68,1.88a1.09,1.09,0,0,0,1.14.69h.2v.72Z"/><path class="cls-4" d="M196.54,126.55c0,.74.51,1,1.11,1a12.43,12.43,0,0,0,2.44,0,2.65,2.65,0,0,0,1.78-1,4.12,4.12,0,0,0,.57-1.33H203c-.2,1.06-.46,2.09-.69,3.15-1.62,0-3.25-.08-4.88-.08s-3.26.08-4.88.08v-.56h.25c.67,0,1.39-.09,1.39-1.24v-9.51c0-1-.72-1.06-1.39-1.06h-.25v-.56c1,0,1.94.07,2.92.07s1.87-.07,2.81-.07V116h-.46c-.7,0-1.26,0-1.26,1Z"/><path class="cls-4" d="M202.22,128.28c.21-1,.46-2,.65-3h-.38a4.44,4.44,0,0,1-.57,1.3,2.74,2.74,0,0,1-1.83,1c-.49,0-1,.08-1.42.08h-1c-.61-.07-1.19-.32-1.19-1.11V117c0-1,.65-1.08,1.34-1.08h.38v-.39c-.91,0-1.81.08-2.73.08s-1.89-.07-2.84-.08v.39h.18c.66,0,1.47.12,1.47,1.14v9.51c0,1.2-.8,1.32-1.47,1.32h-.18v.39c1.6,0,3.2-.07,4.81-.07s3.22.07,4.82.07m.06.16c-1.63,0-3.26-.07-4.88-.07s-3.26.07-4.89.07h-.08v-.71h.34c.67,0,1.3-.06,1.31-1.16v-9.51c0-.9-.64-1-1.31-1h-.34v-.71h.08c1,0,2,.07,2.93.07s1.87-.07,2.81-.07h.08v.71h-.54c-.72,0-1.17,0-1.18.92v9.55c0,.69.46.88,1,1h1a13.13,13.13,0,0,0,1.4-.07,2.6,2.6,0,0,0,1.72-1,4.17,4.17,0,0,0,.56-1.3v-.06h.7v.1c-.21,1.06-.46,2.09-.69,3.15v.06Z"/></svg>