<svg id="图层_1" data-name="图层 1" xmlns="http://www.w3.org/2000/svg" viewBox="0 0 248.24 146.45"><defs><style>.cls-1{fill:none;stroke:#bcbcbc;stroke-miterlimit:10;stroke-width:0.36px;}.cls-2{fill:#f69d1b;}.cls-3{fill:#ea001b;}.cls-4{fill:#fe5f00;}.cls-5{fill:#231f20;}.cls-6{fill:#f6981a;}.cls-7{fill:#f7a02d;}.cls-8{fill:#2d292a;}</style></defs><rect class="cls-1" x="0.18" y="0.18" width="247.89" height="146.09"/><path class="cls-2" d="M124.13,31.71a41.21,41.21,0,0,1,8.81-5.23,39.75,39.75,0,0,1,54.76,29,39.69,39.69,0,0,1-26,45.12,38.13,38.13,0,0,1-11.05,2.1,39.34,39.34,0,0,1-26.23-8.26l-.22-.15c0-.27.19-.36.35-.49a35.49,35.49,0,0,0,3-2.71,41.79,41.79,0,0,0,5.9-7.53,39.37,39.37,0,0,0,5.2-14,41.34,41.34,0,0,0,.5-5.1,38.72,38.72,0,0,0-.95-10.3,38.28,38.28,0,0,0-4.28-10.93,41.19,41.19,0,0,0-5.12-7,56.17,56.17,0,0,0-4.63-4.37A.14.14,0,0,1,124.13,31.71Z"/><path class="cls-3" d="M124.13,31.71s0,.06,0,.09c-.06.25-.28.36-.46.51a39.22,39.22,0,0,0-10.91,14,38.41,38.41,0,0,0-3.38,12.12,36.66,36.66,0,0,0-.29,4.91,39.64,39.64,0,0,0,10.09,26,41,41,0,0,0,4.35,4.19c.23.19.61.29.54.72a38.78,38.78,0,0,1-14.5,7.19A39.75,39.75,0,0,1,84.49,26.2a39.8,39.8,0,0,1,39.64,5.51Z"/><path class="cls-4" d="M124.05,94.27A6.51,6.51,0,0,0,122.68,93a43.53,43.53,0,0,1-4.55-4.66,40.05,40.05,0,0,1-9.19-25.76,39.68,39.68,0,0,1,10.42-26.43A43.73,43.73,0,0,1,123.8,32a3.28,3.28,0,0,1,.31-.2A5.87,5.87,0,0,1,125.67,33a40,40,0,0,1,9.77,12.84,38.73,38.73,0,0,1,3.27,10.24,45.29,45.29,0,0,1,.56,5.46,39.5,39.5,0,0,1-8.61,26.2,38.67,38.67,0,0,1-3.13,3.5,28.65,28.65,0,0,1-3.2,2.83,1.62,1.62,0,0,0-.18.19l-.05,0Z"/><path class="cls-5" d="M68.86,113.32a3.86,3.86,0,0,1,4.3-1.25,3.56,3.56,0,0,1,2,1.38c.16.21.23.31.44,0a4.55,4.55,0,0,1,5.52-1.14,3.63,3.63,0,0,1,2.09,3.32c.06,2.23,0,4.46,0,6.69,0,.29-.09.37-.36.35a13.5,13.5,0,0,1-1.91-.06c0-.6,0-1.21,0-1.81,0-1.5,0-3,0-4.5a2.11,2.11,0,0,0-2.34-2.28,2.42,2.42,0,0,0-2.5,2.51q0,2.79,0,5.58c0,.47-.12.62-.58.57a5.82,5.82,0,0,0-1.18,0c-.45,0-.61-.07-.6-.57,0-1.7,0-3.39,0-5.09a6.12,6.12,0,0,0,0-1,2.13,2.13,0,0,0-2.36-2,2.35,2.35,0,0,0-2.43,2.4c0,1.85,0,3.71,0,5.57,0,.54-.12.76-.69.69a9.24,9.24,0,0,0-1.29,0c-.25,0-.38,0-.37-.34,0-3.28,0-6.57,0-9.85,0-.31.11-.36.37-.35.5,0,1,0,1.5,0s.48.09.45.45A1.27,1.27,0,0,0,68.86,113.32Z"/><path class="cls-5" d="M103.24,111.88a8.68,8.68,0,0,1,3.9.89c.3.16.36.31.17.6a9.38,9.38,0,0,0-.6,1.13c-.14.31-.28.3-.55.16a6.14,6.14,0,0,0-3.52-.66,2.54,2.54,0,0,0-.62.14,1.1,1.1,0,0,0-.8,1.09c0,.51.45.71.88.8.83.17,1.68.29,2.52.44a5.25,5.25,0,0,1,1.33.41,2.69,2.69,0,0,1,1.79,2.26,3,3,0,0,1-1.36,3,5.85,5.85,0,0,1-3.2.88,7.91,7.91,0,0,1-4.4-1.1c-.29-.18-.42-.32-.17-.64a5.77,5.77,0,0,0,.61-1c.16-.33.3-.37.63-.16a5.78,5.78,0,0,0,4.43.7,1.69,1.69,0,0,0,.67-.3.89.89,0,0,0-.13-1.59,7.44,7.44,0,0,0-2.19-.46,7.3,7.3,0,0,1-2.06-.55,2.71,2.71,0,0,1-1.73-2.26,3,3,0,0,1,1.36-2.94A5.57,5.57,0,0,1,103.24,111.88Z"/><path class="cls-5" d="M111.47,117.17c0-.85,0-1.71,0-2.57,0-.28-.08-.38-.37-.37-.46,0-.93,0-1.39,0-.29,0-.42,0-.4-.37a10,10,0,0,0,0-1.34c0-.33.12-.38.41-.37s.89,0,1.33,0,.43-.11.42-.43c0-.78,0-1.57,0-2.35,0-.37.11-.46.45-.44a10.75,10.75,0,0,0,1.39,0c.37,0,.5.07.48.46,0,.75,0,1.5,0,2.25,0,.39.09.53.5.51.93,0,1.86,0,2.79,0,.42,0,.52.13.48.51a7.75,7.75,0,0,0,0,1.18c0,.35-.11.41-.42.41-1,0-2,0-3,0-.3,0-.4.1-.39.4,0,1.46,0,2.93,0,4.39s.78,2,2.21,1.68a2.7,2.7,0,0,0,.76-.24c.48-.3.7-.18.8.35a2.78,2.78,0,0,0,.26.75c.24.48.09.73-.38.92a5.73,5.73,0,0,1-3.51.36,3,3,0,0,1-2.42-3.1c0-.85,0-1.71,0-2.57Z"/><path class="cls-5" d="M144.8,111.88a6.16,6.16,0,0,1,3.68,1c.29.2.39.35.17.67s-.44,1-.83,1.28-.85-.36-1.32-.5a3.45,3.45,0,0,0-3.7.62,3.49,3.49,0,0,0-.77,3.77,3.21,3.21,0,0,0,4.29,1.9,3.72,3.72,0,0,0,1.15-.56c.24-.18.35-.11.48.13.23.42.47.83.74,1.24.14.22.13.35-.1.51a6.06,6.06,0,0,1-6.21.44,5,5,0,0,1-2.92-4.73A5.26,5.26,0,0,1,144.8,111.88Z"/><path class="cls-5" d="M134.33,113.42a3.46,3.46,0,0,1,4-1.37c.32.08.45.19.28.5a1.29,1.29,0,0,0-.07.21,3.66,3.66,0,0,1-.5,1.38c-.32.35-.85-.07-1.31-.07a2.06,2.06,0,0,0-2.33,2c-.18,1.89,0,3.78-.07,5.67a3.25,3.25,0,0,0,0,.54c0,.29,0,.41-.37.4-.52,0-1,0-1.55,0-.27,0-.37-.06-.37-.35,0-3.28,0-6.57,0-9.85,0-.29.09-.36.36-.35.5,0,1,0,1.5,0,.33,0,.45.08.41.41S134.33,113,134.33,113.42Z"/><path class="cls-5" d="M166.27,113.37A3.44,3.44,0,0,1,170.2,112c.36.09.48.2.33.56s-.35,1-.49,1.47c-.07.23-.15.28-.37.18a2.23,2.23,0,0,0-.57-.12c-1.82-.22-2.8.62-2.83,2.45s0,3.78,0,5.67c0,.37-.08.51-.47.47-.59-.06-1.4.25-1.74-.12s-.09-1.12-.09-1.71c0-2.72,0-5.45,0-8.18,0-.46.13-.6.56-.54a3.87,3.87,0,0,0,.59,0C166.22,112.16,166.22,112.16,166.27,113.37Z"/><path class="cls-6" d="M186.93,86.64c-.32.24-.22.76-.58.77s-.28-.52-.59-.75v.72c0,.1,0,.23-.16.22s-.14-.13-.14-.24c0-.34,0-.68,0-1,0-.12,0-.27.15-.29a.28.28,0,0,1,.34.18l.38.85.4-.87a.26.26,0,0,1,.3-.16c.17,0,.16.16.16.28,0,.34,0,.68,0,1,0,.1,0,.24-.15.23s-.11-.16-.11-.26S186.93,86.9,186.93,86.64Z"/><path class="cls-7" d="M184.54,86.05H185c.1,0,.18,0,.18.14a.12.12,0,0,1-.12.14c-.44,0-.35.28-.36.53v.48c0,.13,0,.28-.19.26s-.11-.16-.11-.26,0-.46,0-.69,0-.29-.19-.31-.34.06-.3-.17.22-.11.35-.12a1.71,1.71,0,0,1,.32,0Z"/><path class="cls-5" d="M182.24,108.76c0-.85,0-.86-.88-.85-.46,0-1.06-.2-1.33.1s-.07.85-.07,1.3v4c-2.24-1.84-4.71-1.94-6.69-.25a5.6,5.6,0,0,0-1.86,5.25,5.23,5.23,0,0,0,6.55,4.45,4.49,4.49,0,0,0,2-1.33,7.41,7.41,0,0,1,0,.84c0,.35.11.43.42.41a6.64,6.64,0,0,1,1.18,0c.53.06.71-.09.7-.67C182.23,117.61,182.24,113.19,182.24,108.76Zm-2.16,8.79a3.2,3.2,0,1,1-3.11-3.5A3.19,3.19,0,0,1,180.08,117.55Z"/><path class="cls-5" d="M96.16,113.34c0-1.18,0-1.18-1.18-1.18s-1.08,0-1.11,1c0,0,0,.05-.08.1A4.32,4.32,0,0,0,89.31,112a5.21,5.21,0,0,0-4,4.82,5.55,5.55,0,0,0,2.77,5.5,4.84,4.84,0,0,0,5.82-.86,5.34,5.34,0,0,1,0,.57c-.08.49.07.71.61.64a5.62,5.62,0,0,1,1.23,0c.39,0,.46-.12.46-.48Q96.16,117.79,96.16,113.34ZM94,117.51a3.15,3.15,0,0,1-3.26,3.29A3.38,3.38,0,1,1,94,117.51Z"/><path class="cls-5" d="M160.84,112.25c-.29-.28-.88-.08-1.34-.08-.85,0-.84,0-.86.86,0,.1.06.22-.07.28a4.79,4.79,0,0,0-6.45-.35,5.56,5.56,0,0,0-1.9,5.92,4.87,4.87,0,0,0,3.6,3.87,4.4,4.4,0,0,0,4.83-1.3,7.59,7.59,0,0,1,0,.85c0,.35.1.42.42.41a9.21,9.21,0,0,1,1.39,0c.42,0,.49-.12.49-.51,0-2.87,0-5.74,0-8.62C160.92,113.13,161.13,112.53,160.84,112.25Zm-6.77,8.19a3.53,3.53,0,0,1-1.39-4.48,3.13,3.13,0,0,1,3.95-1.74,3.36,3.36,0,1,1-2.56,6.22Z"/><path class="cls-5" d="M129.61,116.37a5.09,5.09,0,0,0-10.14.37c-.28,2.63.9,5.21,3.66,6a6.63,6.63,0,0,0,5.49-.81c.44-.27.61-.51.21-1a4.68,4.68,0,0,1-.54-.8c-.16-.28-.29-.35-.59-.14a4.74,4.74,0,0,1-3.19.85,2.84,2.84,0,0,1-2.56-2c-.13-.39-.13-.57.37-.55,1.15,0,2.29,0,3.43,0s2.32,0,3.48,0c.37,0,.46-.13.47-.46A12.29,12.29,0,0,0,129.61,116.37Zm-2.74.13c-.76,0-1.53,0-2.3,0s-1.57,0-2.36,0c-.29,0-.37-.07-.31-.37a2.7,2.7,0,0,1,2.73-2.19,2.57,2.57,0,0,1,2.6,2.1C127.31,116.37,127.27,116.52,126.87,116.5Z"/><path class="cls-8" d="M185.84,122.29v.37h-.16v-.89h.37c.19,0,.3.1.3.24a.21.21,0,0,1-.14.21s.12.06.12.22v0a1,1,0,0,0,0,.18h-.16a.88.88,0,0,1,0-.2v0c0-.1,0-.15-.17-.15Zm0-.14H186c.12,0,.17,0,.17-.12s-.06-.13-.16-.13h-.18Z"/><path class="cls-8" d="M186,123.22a1,1,0,1,1,1-1A1,1,0,0,1,186,123.22Zm0-1.81a.8.8,0,1,0,.8.8A.8.8,0,0,0,186,121.41Z"/></svg>