<svg id="图层_1" data-name="图层 1" xmlns="http://www.w3.org/2000/svg" viewBox="0 0 248.24 146.45"><defs><style>.cls-1{fill:none;stroke:#bcbcbc;stroke-miterlimit:10;stroke-width:0.36px;}.cls-2{fill:#f69310;}.cls-3{fill:#e61f22;}.cls-4{fill:#282425;}.cls-5{fill:#f0511b;}.cls-6{fill:#231f20;}.cls-7{fill:#242021;}.cls-8{fill:#f6981a;}.cls-9{fill:#f7a02d;}.cls-10{fill:#2d292a;}</style></defs><rect class="cls-1" x="0.18" y="0.18" width="247.89" height="146.09"/><path class="cls-2" d="M182.67,51.91c-.13,1-.23,2-.38,3A36.18,36.18,0,0,1,153,85.13a35.5,35.5,0,0,1-28.41-6.85c-.12-.09-.27-.16-.41-.25,0-.28.19-.39.36-.53A35.94,35.94,0,0,0,137.36,55a36.51,36.51,0,0,0,.37-7.53,35.94,35.94,0,0,0-2.41-11.1,36.41,36.41,0,0,0-6.47-10.65,33.45,33.45,0,0,0-4.24-4.09c-.2-.17-.49-.28-.52-.61s.25-.29.4-.41a35.76,35.76,0,0,1,17.29-7.13,37.69,37.69,0,0,1,7.2-.19,34.58,34.58,0,0,1,13,3.37A36.56,36.56,0,0,1,178.85,33a35.87,35.87,0,0,1,3.63,11.48c.13.88.09,1.77.19,2.65Z"/><path class="cls-3" d="M124,78a35.94,35.94,0,0,1-14.77,6.89,36.23,36.23,0,0,1-43.09-28.7,32.58,32.58,0,0,1-.51-3.81c0-.11,0-.23-.08-.32V46.93c.11-.72.06-1.45.15-2.17a35.94,35.94,0,0,1,2.8-10A36.58,36.58,0,0,1,73,27.36a36,36,0,0,1,9.93-8.89,35,35,0,0,1,13.83-4.91,36.2,36.2,0,0,1,26.93,7c.17.13.37.23.41.46s-.24.45-.43.6c-.94.78-1.85,1.58-2.71,2.45a36.18,36.18,0,0,0-10,19.51,35,35,0,0,0-.41,8.11,35.9,35.9,0,0,0,9,21.76,34.34,34.34,0,0,0,4.2,4C123.88,77.61,124.15,77.72,124,78Z"/><path class="cls-4" d="M182.67,112.89H65.57v-.39h117.1Z"/><path class="cls-5" d="M124,21.07l.1,0a42.85,42.85,0,0,1,3.6,3.26,37.72,37.72,0,0,1,5.79,7.89,35.85,35.85,0,0,1,3.53,9.44,36.52,36.52,0,0,1,.75,5.12,38,38,0,0,1,0,4.77,32.9,32.9,0,0,1-.76,5.66,36.06,36.06,0,0,1-7.63,15.55,41.24,41.24,0,0,1-2.87,3,24.78,24.78,0,0,1-2,1.79,5.44,5.44,0,0,0-.41.42H124c-.11-.44-.54-.6-.83-.84a34.61,34.61,0,0,1-6.7-7.39,35.12,35.12,0,0,1-4.88-10.69,41,41,0,0,1-1.07-5.71,36.73,36.73,0,0,1-.15-6,32.89,32.89,0,0,1,1.47-8.33,35.34,35.34,0,0,1,2.5-6.16,35.83,35.83,0,0,1,4.07-6.2,34.94,34.94,0,0,1,3-3.29c.77-.73,1.6-1.41,2.41-2.11C124,21.23,124,21.18,124,21.07Z"/><path class="cls-6" d="M73.59,95.56A3.21,3.21,0,0,1,75.8,94.2a3.75,3.75,0,0,1,3.6,1.38c.18.23.24.3.47,0a4.1,4.1,0,0,1,5-1,3.34,3.34,0,0,1,1.85,3.15c0,2,0,4,0,6,0,.27-.11.33-.35.33a7.69,7.69,0,0,0-1.07,0c-.37,0-.5-.06-.49-.46,0-1.6,0-3.19,0-4.78a6.9,6.9,0,0,0-.06-1A2,2,0,0,0,82.64,96a2.36,2.36,0,0,0-2.43,1.77,3.61,3.61,0,0,0-.06.87c0,1.67,0,3.35,0,5,0,.29,0,.41-.37.39a7.62,7.62,0,0,0-1.17,0c-.33,0-.44-.08-.44-.43,0-1.61,0-3.22,0-4.83a6.31,6.31,0,0,0,0-1A2.11,2.11,0,0,0,75.59,96a2.3,2.3,0,0,0-2,2.32c0,1.75,0,3.51,0,5.26,0,.4-.12.51-.48.47s-1.11.2-1.41-.1-.07-.9-.07-1.37c0-2.56,0-5.13,0-7.7,0-.38.09-.52.48-.48a3.94,3.94,0,0,0,1,0c.46-.06.57.14.52.55A4,4,0,0,0,73.59,95.56Z"/><path class="cls-6" d="M105.24,94.08a7.54,7.54,0,0,1,3.38.81c.3.14.32.27.14.53a9.6,9.6,0,0,0-.54.92c-.15.3-.27.38-.62.21a5,5,0,0,0-3.34-.56,1.31,1.31,0,0,0-.28.09c-.58.21-.92.59-.9,1s.48.73.92.87c.81.25,1.67.26,2.49.47a7.54,7.54,0,0,1,.92.29,2.41,2.41,0,0,1,1.68,2.08,2.72,2.72,0,0,1-1.23,2.69,5.24,5.24,0,0,1-2.83.76,7.53,7.53,0,0,1-4-1.07c-.23-.14-.35-.24-.14-.51s.41-.87.75-1,.73.31,1.12.46a5.48,5.48,0,0,0,3.3.21,1.8,1.8,0,0,0,.62-.27.87.87,0,0,0-.07-1.55,5.41,5.41,0,0,0-1.93-.47,8.23,8.23,0,0,1-1.84-.44,2.4,2.4,0,0,1-1.67-2.14,2.77,2.77,0,0,1,1.18-2.63A5.19,5.19,0,0,1,105.24,94.08Z"/><path class="cls-6" d="M112.66,98.91c0-.8,0-1.6,0-2.39,0-.41-.13-.5-.5-.48s-.81,0-1.22,0-.35-.08-.32-.34c0-.44-.19-1,.08-1.31s.83-.07,1.26-.08c.69,0,.69,0,.69-.71s0-1.24,0-1.85c0-.29.06-.42.38-.4s.84,0,1.27,0c.25,0,.33.09.33.34,0,.69,0,1.4,0,2.09,0,.46.14.54.55.53.83,0,1.66,0,2.49,0,.32,0,.48.05.43.41s.17.92-.08,1.18-.77.06-1.17.07c-.64,0-1.27,0-1.9,0-.23,0-.31.06-.31.3,0,1.51,0,3,0,4.54a1.26,1.26,0,0,0,1.44,1.34,3.41,3.41,0,0,0,1.54-.39c.22-.11.34-.11.42.16s.25.77.39,1.14a.31.31,0,0,1-.18.46,4.89,4.89,0,0,1-3.92.34,2.46,2.46,0,0,1-1.62-2.43c-.06-.84,0-1.69,0-2.53Z"/><path class="cls-6" d="M143.22,104.2a4.78,4.78,0,0,1-5-3.93c-.51-2.76.44-4.86,2.91-5.83a5.36,5.36,0,0,1,5.12.53c.28.17.34.33.12.6a6,6,0,0,0-.58.9c-.13.23-.24.22-.45.09a3.74,3.74,0,0,0-2.79-.6,3,3,0,0,0-2.38,2.78,3.2,3.2,0,0,0,2.37,3.56,3.59,3.59,0,0,0,2.79-.54c.3-.18.43-.14.58.15a7.32,7.32,0,0,0,.59.9c.16.21.09.31-.1.45A5.25,5.25,0,0,1,143.22,104.2Z"/><path class="cls-7" d="M162.35,95.49a3.45,3.45,0,0,1,3.77-1.27c.28.06.39.13.25.43a10.51,10.51,0,0,0-.44,1.18c-.08.25-.18.28-.42.2a2.89,2.89,0,0,0-1.4-.09,2.07,2.07,0,0,0-1.64,2c-.12,1.22,0,2.44-.05,3.66,0,.66,0,1.33,0,2,0,.29,0,.42-.37.4s-.85,0-1.27,0c-.26,0-.33-.08-.33-.33q0-4.5,0-9c0-.28.1-.36.37-.35a8.37,8.37,0,0,0,1.12,0c.35,0,.46.1.42.44S162.35,95.17,162.35,95.49Z"/><path class="cls-6" d="M133.31,95.5a3.46,3.46,0,0,1,3.78-1.28c.31.07.39.17.24.45a.58.58,0,0,0-.05.14A3.32,3.32,0,0,1,136.8,96c-.27.29-.72-.06-1.1-.06-1.43,0-2.28.87-2.3,2.48s0,3.41,0,5.11c0,.42-.12.53-.52.5a6.86,6.86,0,0,0-1.11,0c-.25,0-.34-.06-.34-.32,0-3,0-6,0-9,0-.25.07-.33.33-.32a9.77,9.77,0,0,0,1.21,0c.3,0,.36.11.34.37S133.31,95.14,133.31,95.5Z"/><path class="cls-6" d="M139.81,128.32c0-.65,0-1.3,0-1.95,0-.33-.1-.44-.41-.4a2,2,0,0,1-.49,0c-.27,0-.69.13-.78-.06a3,3,0,0,1-.06-1c0-.21.16-.16.28-.16.34,0,.69,0,1,0s.45-.07.44-.43c0-.6,0-1.2,0-1.8,0-.24,0-.33.32-.34,1.1,0,1.1,0,1.1,1.06,0,.37,0,.75,0,1.12s.07.39.37.39c.9,0,1.79,0,2.69,0,.28,0,.34.09.35.36,0,1,0,1-1,1h-2.1c-.23,0-.31,0-.31.3,0,1.25,0,2.5,0,3.75a1.42,1.42,0,0,0,1.67,1.51,2.39,2.39,0,0,0,1.25-.36c.2-.14.28-.09.41.1.59.86.59.93-.37,1.33a3.76,3.76,0,0,1-3,0,2.41,2.41,0,0,1-1.32-2.32,20,20,0,0,1,0-2.05Z"/><path class="cls-6" d="M136.32,128.9c0,1.21,0,2.43,0,3.65,0,.29-.07.38-.37.38-1,0-1,0-1-1,0-2.24,0-4.48,0-6.71,0-.38.1-.46.46-.45.9,0,.9,0,.9.9Z"/><path class="cls-7" d="M136.62,121.92a1,1,0,0,1-1,1,1,1,0,1,1,1-1Z"/><path class="cls-6" d="M176.94,90.55c-.28-.27-.87,0-1.31-.09s-.58.1-.57.55c0,1.46,0,2.92,0,4.48a4.49,4.49,0,0,0-7.31,1.24,5.68,5.68,0,0,0-.42,3.52,4.72,4.72,0,0,0,5.64,3.86,3.86,3.86,0,0,0,2.09-1.31c0,.31,0,.52,0,.73s.09.4.38.38a4.44,4.44,0,0,1,1,0c.49.07.57-.14.57-.59,0-3.82,0-7.64,0-11.46C177,91.41,177.23,90.82,176.94,90.55Zm-1.71,8.79a3,3,0,0,1-3.92,2.91,3.06,3.06,0,0,1-2-3.11,3,3,0,0,1,4.09-3A3.14,3.14,0,0,1,175.23,99.34Z"/><path class="cls-6" d="M98.56,95.23c0-.9,0-.9-.91-.9s-1,0-1.08,1.06a4.43,4.43,0,0,0-6.16-.23A5.21,5.21,0,0,0,88.8,99.8,4.75,4.75,0,0,0,94.62,104a3.8,3.8,0,0,0,1.94-1.26c.1.38-.12.86.12,1s.69,0,1,.06a2.41,2.41,0,0,1,.38,0c.37.06.46-.08.45-.44C98.55,100.66,98.56,98,98.56,95.23Zm-1.9,4.24a2.93,2.93,0,0,1-2,2.79,3,3,0,0,1-3.89-3.15A3,3,0,0,1,94.52,96,3.13,3.13,0,0,1,96.66,99.47Z"/><path class="cls-6" d="M157.59,95.24c0-.91,0-.91-.9-.91s-1,0-1.07,1a4.33,4.33,0,0,0-4.47-1.16c-3.68,1.11-4.17,5.83-2.22,8.24,1.32,1.63,4.66,2.58,6.66.34.15.33-.15.82.15,1a2.71,2.71,0,0,0,1.11,0h.24c.39.07.51-.06.51-.48C157.58,100.64,157.59,97.94,157.59,95.24Zm-3.82,7a3,3,0,0,1-3.93-3.38,3,3,0,0,1,4.07-2.77,3.09,3.09,0,0,1,1.87,3A3,3,0,0,1,153.77,102.25Z"/><path class="cls-6" d="M129,97.69a4.25,4.25,0,0,0-3.29-3.46,4.48,4.48,0,0,0-4.66,1.5A5.26,5.26,0,0,0,120,100a4.41,4.41,0,0,0,2.94,3.9,5.78,5.78,0,0,0,5.1-.49c.76-.46.76-.47.24-1.17-.09-.13-.2-.25-.28-.39-.18-.3-.32-.39-.67-.16a4.34,4.34,0,0,1-2.87.72,2.75,2.75,0,0,1-2.41-2c-.09-.36,0-.44.36-.43,1,0,2.11,0,3.17,0h3.22c.26,0,.34-.07.38-.34A4.76,4.76,0,0,0,129,97.69Zm-2.17.64c-.77,0-1.53,0-2.29,0s-1.43,0-2.14,0c-.47,0-.47-.19-.38-.52A2.49,2.49,0,0,1,123.92,96a2.55,2.55,0,0,1,3.19,2C127.16,98.24,127.1,98.34,126.81,98.33Z"/><path class="cls-6" d="M112.21,121.68c0-1.11,0-1.09-1.11-1.07-.3,0-.35.12-.34.38,0,.76,0,1.53,0,2.29v2.59l-.38-.34a3.94,3.94,0,0,0-5.54.47,4.56,4.56,0,0,0-.69,4.34,3.75,3.75,0,0,0,3.26,2.7,3.94,3.94,0,0,0,3.33-1.18c.07,1.06.07,1,1,1.07.38,0,.49-.09.49-.48C112.2,128.86,112.21,125.27,112.21,121.68Zm-4.07,9.95a2.86,2.86,0,0,1-.07-5.71,2.81,2.81,0,0,1,2.92,2.86A2.86,2.86,0,0,1,108.14,131.63Z"/><path class="cls-6" d="M132.51,127.79a3.93,3.93,0,0,0-6.73-1.91v-4.26c0-1,0-1-1-1-.27,0-.35.08-.35.35q0,5.81,0,11.61c0,.22,0,.34.31.35,1,0,1,0,1.09-1l.48.41a3.78,3.78,0,0,0,4.65.07A4.31,4.31,0,0,0,132.51,127.79Zm-4,3.84a2.8,2.8,0,0,1-2.87-2.87,2.91,2.91,0,0,1,2.87-2.85,2.79,2.79,0,0,1,2.78,2.85A2.74,2.74,0,0,1,128.49,131.63Z"/><path class="cls-6" d="M120.79,125.49c-2.29-2-5.66-.24-6.23,1.91a5.86,5.86,0,0,0-.18,2.46,3.75,3.75,0,0,0,1.56,2.64,4.81,4.81,0,0,0,5,.05c.86-.52.85-.61.19-1.37-.14-.16-.21-.18-.38,0a3.07,3.07,0,0,1-1.45.64c-1.82.4-3.2-.45-3.48-2.11,0-.25,0-.3.24-.3,1,0,1.92,0,2.88,0h2.87c.14,0,.36.1.36-.19A4.5,4.5,0,0,0,120.79,125.49Zm-4.72,2.69c-.28,0-.21-.13-.18-.3a2.36,2.36,0,0,1,2.32-2,2.29,2.29,0,0,1,2.45,1.79,5.43,5.43,0,0,1,.13.54C119.18,128.18,117.63,128.17,116.07,128.18Z"/><path class="cls-8" d="M181.28,71.56c-.28.22-.19.7-.52.71s-.25-.48-.54-.69v.65c0,.1,0,.21-.14.21s-.13-.12-.13-.22q0-.47,0-.93c0-.1,0-.23.14-.26a.26.26,0,0,1,.31.17l.34.77c.14-.31.26-.55.36-.79a.26.26,0,0,1,.28-.15c.16,0,.14.15.14.26,0,.31,0,.62,0,.92,0,.1,0,.23-.13.21s-.1-.14-.11-.23Z"/><path class="cls-9" d="M179.11,71h.39c.09,0,.17,0,.17.13a.11.11,0,0,1-.11.13c-.4,0-.32.26-.33.49v.43c0,.12,0,.25-.17.23s-.1-.14-.11-.23v-.63c0-.12,0-.27-.17-.28s-.31,0-.28-.16.21-.1.32-.11Z"/><path class="cls-10" d="M179.79,103.39v.33h-.15v-.81H180c.18,0,.27.1.27.22a.18.18,0,0,1-.13.19s.11.06.11.21v0a.66.66,0,0,0,0,.15h-.14a.39.39,0,0,1,0-.18h0c0-.1,0-.14-.16-.14Zm0-.13H180c.1,0,.14,0,.14-.11s0-.11-.14-.11h-.16Z"/><path class="cls-10" d="M179.94,104.24a.93.93,0,0,1,0-1.85.93.93,0,1,1,0,1.85Zm0-1.65a.73.73,0,1,0,.73.73A.73.73,0,0,0,179.94,102.59Z"/></svg>