<svg id="图层_1" data-name="图层 1" xmlns="http://www.w3.org/2000/svg" xmlns:xlink="http://www.w3.org/1999/xlink" viewBox="0 0 248.24 146.45"><defs><style>.cls-1{fill:#f9f9f9;stroke:#bcbcbc;stroke-miterlimit:10;stroke-width:0.36px;}.cls-2{fill:#f58220;}.cls-3{fill:url(#radial-gradient);}.cls-4{fill:#001722;}.cls-5{fill:#231f20;}</style><radialGradient id="radial-gradient" cx="121.79" cy="-425.41" r="16.57" gradientTransform="translate(6.42 486.08)" gradientUnits="userSpaceOnUse"><stop offset="0.01" stop-color="#ffeee0"/><stop offset="0.11" stop-color="#fee9d7"/><stop offset="0.28" stop-color="#fddbbf"/><stop offset="0.49" stop-color="#fbc597"/><stop offset="0.74" stop-color="#f8a560"/><stop offset="1" stop-color="#f48120"/></radialGradient></defs><title>22222</title><rect class="cls-1" x="0.18" y="0.18" width="247.89" height="146.09"/><path class="cls-2" d="M68.32,146.12H248.07V79.85C231.61,90.28,169.56,126.25,68.32,146.12Z"/><path class="cls-3" d="M128.23,44.29c-9.26,0-16.78,7.24-16.78,16.17,0,9.5,7.19,16.59,16.78,16.59a16.38,16.38,0,1,0,0-32.76Z"/><path class="cls-4" d="M33,44.88h-9V76.34h9c4.76,0,8.2-1.13,11.22-3.63a15.85,15.85,0,0,0,5.71-12.09C49.86,51.34,42.91,44.88,33,44.88Zm7.18,23.63c-1.94,1.75-4.44,2.5-8.4,2.5H30.09V50.21h1.65c4,0,6.37.71,8.4,2.54a10.57,10.57,0,0,1,3.39,7.83A10.77,10.77,0,0,1,40.14,68.51Z"/><rect class="cls-4" x="52.69" y="44.88" width="6.13" height="31.47"/><path class="cls-4" d="M73.83,56.95c-3.69-1.36-4.77-2.26-4.77-4,0-2,1.92-3.49,4.57-3.49a6.38,6.38,0,0,1,5,2.54l3.2-4.19a13.74,13.74,0,0,0-9.25-3.5c-5.56,0-9.81,3.87-9.81,9,0,4.35,2,6.56,7.74,8.63a24,24,0,0,1,4.25,1.8A3.77,3.77,0,0,1,76.57,67a4.48,4.48,0,0,1-4.77,4.43,7.25,7.25,0,0,1-6.7-4.19l-4,3.83c2.82,4.15,6.22,6,10.9,6,6.37,0,10.85-4.25,10.85-10.34C82.89,61.77,80.81,59.5,73.83,56.95Z"/><path class="cls-4" d="M84.82,60.63a16.3,16.3,0,0,0,16.61,16.42,16.9,16.9,0,0,0,7.7-1.84V68c-2.46,2.46-4.63,3.44-7.41,3.44-6.18,0-10.57-4.48-10.57-10.85,0-6,4.53-10.8,10.29-10.8,2.92,0,5.14,1,7.7,3.54V46.1a15.66,15.66,0,0,0-7.55-1.93A16.54,16.54,0,0,0,84.82,60.63Z"/><polygon class="cls-4" points="158.85 66.01 150.45 44.88 143.75 44.88 157.11 77.15 160.41 77.15 174 44.88 167.35 44.88 158.85 66.01"/><polygon class="cls-4" points="176.79 76.34 194.19 76.34 194.19 71.02 182.92 71.02 182.92 62.52 193.77 62.52 193.77 57.19 182.92 57.19 182.92 50.21 194.19 50.21 194.19 44.88 176.79 44.88 176.79 76.34"/><path class="cls-4" d="M218.49,54.17c0-5.9-4.06-9.29-11.13-9.29h-9.11V76.34h6.14V63.7h.8l8.49,12.64h7.55l-9.91-13.26C215.94,62.15,218.49,59,218.49,54.17Zm-12.32,5.19h-1.79V49.83h1.89c3.83,0,5.91,1.61,5.91,4.67S210.1,59.36,206.17,59.36Z"/><path class="cls-5" d="M222.82,47.22c0-.55-.37-.85-1-.85h-.89v2.78h.66V48.07l.77,1.08h.82L222.21,48A.76.76,0,0,0,222.82,47.22Zm-1.16.38h-.12v-.72h.13c.32,0,.49.12.49.35S222,47.6,221.66,47.6Z"/><path class="cls-5" d="M221.9,45.33a2.42,2.42,0,1,0,2.39,2.42A2.41,2.41,0,0,0,221.9,45.33Zm0,4.41a2,2,0,1,1,1.91-2A2,2,0,0,1,221.9,49.74Z"/></svg>