<svg id="图层_1" data-name="图层 1" xmlns="http://www.w3.org/2000/svg" viewBox="0 0 248.24 146.45"><defs><style>.cls-1{fill:#006fd0;}.cls-2{fill:#fff;}</style></defs><rect class="cls-1" x="0.18" y="0.18" width="247.89" height="146.09"/><path class="cls-2" d="M67,69.86v-3l-1.42,3H53.36l-1.54-3.17v3.17H29l-2.7-6.39H21.69l-2.86,6.39H7V50.57l8.69-19.66H32.3l2.34,5.57V31H55l4.47,9.38,4.38-9.42h64.22a11,11,0,0,1,5.57,1.51V30.91h16.19V33A13.16,13.16,0,0,1,157,30.91h28.55l2.51,5.65V30.91h18.29l3.32,5.65V30.91h17.49v39h-18L205,63.11v6.76H182.65l-3.14-7h-4.39l-2.94,7H158.67a17.47,17.47,0,0,1-8.82-2.77v2.77H122.94v-9.1c0-1.32-1-1.23-1-1.23h-1V69.86Z"/><path class="cls-2" d="M53.58,78.31H88.93L94,84.09l5.22-5.78h27.18a12.52,12.52,0,0,1,5,1.36V78.31h24.2a12.29,12.29,0,0,1,5.65,1.54V78.31H192.4v1.42a10.6,10.6,0,0,1,5.2-1.42h20.27v1.42a12.4,12.4,0,0,1,5.25-1.42H239v36.74a8.75,8.75,0,0,1-6.42,2.37h-21v-1.17a10.69,10.69,0,0,1-5,1.17H150.84v-9.5c0-.93-.4-1.1-1.24-1.1h-.78v10.6h-17.4V106.88a11.77,11.77,0,0,1-5.16,1H120v9.5H98.51l-4.87-6-5.22,6H53.58Z"/><polygon class="cls-1" points="165 84.17 187.19 84.17 187.19 90.12 171.79 90.12 171.79 95.31 186.76 95.31 186.76 100.55 171.79 100.55 171.79 106.01 187.19 106.01 187.19 111.81 165 111.81 165 84.17"/><path class="cls-1" d="M230.07,94.94c8.33.43,9,4.59,9,9,0,5.18-4.26,8-8.7,8H216.18V106h11.11c1.89,0,4.69,0,4.69-2.65,0-1.26-.49-2.06-2.5-2.28-.89-.13-4.19-.31-4.69-.32-7.53-.2-9.29-4-9.29-8.51,0-5.18,3.64-8,8.09-8h14.25v5.93H227.38c-2.37,0-4.93-.28-4.93,2.4,0,1.7,1.26,2,2.87,2.19C225.87,94.75,229.57,94.94,230.07,94.94Z"/><path class="cls-1" d="M204.51,94.94c8.34.43,9,4.59,9,9,0,5.18-4.25,8-8.7,8H190.6V106h11.11c1.88,0,4.69,0,4.69-2.65,0-1.26-.5-2.06-2.5-2.28-.89-.13-4.19-.31-4.69-.32-7.54-.2-9.29-4-9.29-8.51,0-5.18,3.64-8,8.08-8h14.25v5.93H201.82c-2.38,0-4.94-.28-4.94,2.4,0,1.7,1.27,2,2.87,2.19C200.32,94.75,204,94.94,204.51,94.94Z"/><path class="cls-1" d="M124,84.18H100.18L92.4,92.76l-7.48-8.58H58.18v27.64H84.05l8.13-9.14,8,9.2h13v-9.39h9.13c3.51,0,9.93-.12,9.93-9.81C132.25,85.77,127.37,84.18,124,84.18ZM80.51,106H64.86v-5.46h15V95.31h-15V90.12H81.37L88,97.64Zm25.93,3.17-9.75-11.5,9.75-10.8Zm15.31-12.42H113.3V90.18h8.48c2.84,0,3.74,1.82,3.74,3.18,0,1.82-1,3.44-3.77,3.44Z"/><path class="cls-1" d="M156.82,99.29c3.71-1.85,4.69-4.32,4.69-7.65,0-5.92-4.81-7.4-8.14-7.4H135.71v27.64h6.79v-9.75h8.88c2.36,0,3.27,2.35,3.33,4.69l.18,5.06h6.61l-.25-5.68C161.26,101.75,160,99.65,156.82,99.29ZM151,96.43h-8.45V90.18H151c2.83,0,3.72,1.82,3.72,3.18,0,1.82-1,3.07-3.75,3.07Z"/><rect class="cls-1" x="138.43" y="36.45" width="6.79" height="27.68"/><polygon class="cls-1" points="82.88 36.48 105.06 36.48 105.06 42.43 89.67 42.43 89.67 47.62 104.63 47.62 104.63 52.86 89.67 52.86 89.67 58.32 105.06 58.32 105.06 64.12 82.88 64.12 82.88 36.48"/><path class="cls-1" d="M130.18,51.53c3.71-1.84,4.69-4.32,4.69-7.65,0-5.92-4.81-7.4-8.14-7.4H109.09V64.12h6.79V54.37h8.88c2.35,0,3.27,2.34,3.33,4.69l.17,5.06h6.61l-.25-5.68C134.64,54,133.4,51.9,130.18,51.53Zm-5.86-2.86h-8.44V42.41h8.47c2.83,0,3.73,1.82,3.73,3.18,0,1.85-1,3.08-3.75,3.08Z"/><path class="cls-1" d="M67.18,36.48,58.9,55,50.6,36.48H40V63.1L28.11,36.48H19.18L7,64.12h7.15L16.83,58H30.39l2.69,6.17H46.74V43.6l9.07,20.52H62l9.29-20.18V64.12h6.79V36.48ZM19.41,52l4-9.66L27.63,52Z"/><path class="cls-1" d="M215.26,36.47V55.61L203.82,36.47h-10v26l-11.64-26h-9l-9.36,21.41s-4,0-4.35-.1c-1.63-.34-4.19-1.49-4.22-6.36v-2c0-6.48,3.52-7,8-7h4.19v-6h-8.76c-3.09,0-9.8,2.35-10,13.71-.17,7.65,3.17,14,10.71,14h9L171,58h13.53l2.66,6.21h13.39V43.89l12.22,20.29h9.26V36.47ZM173.57,52l4-9.66L181.83,52Z"/></svg>