<?xml version="1.0" encoding="UTF-8"?>
<svg width="64px" height="64px" viewBox="0 0 64 64" version="1.1" xmlns="http://www.w3.org/2000/svg" xmlns:xlink="http://www.w3.org/1999/xlink">
    <title>Fiber Cables备份</title>
    <g id="页面-1" stroke="none" stroke-width="1" fill="none" fill-rule="evenodd">
        <g id="Fiber-Cables备份">
            <rect id="矩形" fill-opacity="0" fill="#FFFFFF" x="0" y="0" width="64" height="64"></rect>
            <path d="M26,27 L11,27 C9.9,27 9,26.1 9,25 L9,21 C9,19.9 9.9,19 11,19 L26,19 C27.1,19 28,19.9 28,21 L28,25 C28,26.1 27.1,27 26,27 Z M11,21 L11,21 L11,25 L26,25 L26,21 L11,21 Z" id="形状" fill="#19191A" fill-rule="nonzero"></path>
            <rect id="矩形" fill="#979797" fill-rule="nonzero" x="22" y="20" width="2" height="6"></rect>
            <path d="M38,38 L53,38 C53.6,38 54,38.4 54,39 L54,43 C54,43.6 53.6,44 53,44 L38,44 C37.4,44 37,43.6 37,43 L37,39 C37,38.4 37.4,38 38,38 Z" id="路径" fill="#E8E9EB"></path>
            <path d="M53,45 L38,45 C36.9,45 36,44.1 36,43 L36,39 C36,37.9 36.9,37 38,37 L53,37 C54.1,37 55,37.9 55,39 L55,43 C55,44.1 54.1,45 53,45 Z M38,39 L38,39 L38,43 L53,43 L53,39 L38,39 Z" id="形状" fill="#19191A" fill-rule="nonzero"></path>
            <rect id="矩形" fill="#19191A" fill-rule="nonzero" x="40" y="39" width="2" height="4"></rect>
            <path d="M37.7,33 L30,33 L30,31 L37.7,31 C39.5,31 41,29.4 41,27.5 C41,25.6 39.5,24 37.7,24 L30,24 L30,22 L37.7,22 C40.6,22 43,24.5 43,27.5 C43,30.5 40.6,33 37.7,33 Z" id="路径" fill="#19191A" fill-rule="nonzero"></path>
            <path d="M33.2,42 L21.9,42 C18.8,42 16.2,39.5 16.2,36.5 C16.2,33.5 18.7,31 21.9,31 L31.2,31 L31.2,33 L21.9,33 C19.9,33 18.2,34.6 18.2,36.5 C18.2,38.4 19.8,40 21.9,40 L33.2,40 L33.2,42 Z" id="路径" fill="#19191A" fill-rule="nonzero"></path>
            <path d="M11,20 L26,20 C26.6,20 27,20.4 27,21 L27,25 C27,25.6 26.6,26 26,26 L11,26 C10.4,26 10,25.6 10,25 L10,21 C10,20.4 10.4,20 11,20 Z" id="路径" fill="#E8E9EB"></path>
            <path d="M26,27 L11,27 C9.9,27 9,26.1 9,25 L9,21 C9,19.9 9.9,19 11,19 L26,19 C27.1,19 28,19.9 28,21 L28,25 C28,26.1 27.1,27 26,27 Z M11,21 L11,21 L11,25 L26,25 L26,21 L11,21 Z" id="形状" fill="#19191A" fill-rule="nonzero"></path>
            <rect id="矩形" fill="#19191A" fill-rule="nonzero" x="22" y="21" width="2" height="4"></rect>
            <rect id="矩形" fill="#C00000" x="29" y="21" width="2" height="4"></rect>
            <rect id="矩形" fill="#C00000" x="33" y="39" width="2" height="4"></rect>
        </g>
    </g>
</svg>