<?xml version="1.0" encoding="UTF-8"?>
<svg width="64px" height="64px" viewBox="0 0 64 64" version="1.1" xmlns="http://www.w3.org/2000/svg" xmlns:xlink="http://www.w3.org/1999/xlink">
    <title>index_categories_icon6</title>
    <g id="页面-1" stroke="none" stroke-width="1" fill="none" fill-rule="evenodd">
        <g id="index_categories_icon6">
            <polygon id="路径" fill-opacity="0" fill="#FFFFFF" points="0 0 64 0 64 64 0 64"></polygon>
            <path d="M24,24 L24,22 L34,22 L34,24 L24,24 Z M26,42 L16,42 L16,40 L26,40 L26,42 Z" id="形状" fill="#E8E9EB"></path>
            <path d="M47,41.999 L30,41.999 L30,42.95 L28,42.95 L28,38.967 L30,38.967 L30,39.999 L47,39.999 C48.516,39.999 50,38.735 50,37.224 L50,26.767 C50,25.257 48.766,24.029 47.25,24.029 L38,24.029 L38,25.025 L35.999,25.025 L35.999,24.029 L35.999,22.037 L35.999,21.041 L38,21.041 L38,22.037 L47.25,22.037 C49.869,22.037 52,24.159 52,26.767 L52,37.224 C52,39.832 49.619,41.999 47,41.999 Z" id="路径" fill="#19191A"></path>
            <path d="M36,25 L36,21 L38,21 L38,25 L36,25 Z M28,39 L30,39 L30,43 L28,43 L28,39 Z" id="形状" fill="#19191A"></path>
            <path d="M29.999,25.999 L22,25.999 L22,19.999 L29.999,19.999 L35.054,21.217 L35.054,24.849 L29.999,25.999 Z M32.945,22.856 L29.999,21.999 L24.054,22.09 L24.054,23.975 L29.87,23.975 L32.945,23.208 L32.945,22.856 Z M26.999,38.999 L26.999,42.999 L22,43.999 L14,43.999 L14,37.999 L22,37.999 L26.999,38.999 Z M15.999,41.999 L22,41.999 L24.945,41.135 L24.945,40.782 L22,39.999 L15.999,39.999 L15.999,41.999 Z" id="形状" fill="#19191A"></path>
            <path d="M20.999,25.95 L18.999,25.95 L19,19.999 L21,19.999 L21,20.975 L21,24.96 L20.999,25.95 Z M10.999,43.95 L10.999,37.999 L13,37.999 L13,38.975 L13,42.96 L12.999,43.95 L10.999,43.95 Z" id="形状" fill="#C00000"></path>
        </g>
    </g>
</svg>