<?xml version="1.0" encoding="UTF-8"?>
<svg width="64px" height="64px" viewBox="0 0 64 64" version="1.1" xmlns="http://www.w3.org/2000/svg" xmlns:xlink="http://www.w3.org/1999/xlink">
    <title>MPO Cables</title>
    <g id="页面-1" stroke="none" stroke-width="1" fill="none" fill-rule="evenodd">
        <g id="MPO-Cables">
            <rect id="矩形" fill-opacity="0" fill="#FFFFFF" fill-rule="nonzero" x="0" y="0" width="64" height="64"></rect>
            <rect id="矩形" fill="#19191A" fill-rule="nonzero" x="28" y="23" width="2" height="4"></rect>
            <rect id="矩形" fill="#19191A" fill-rule="nonzero" x="36" y="41" width="2" height="4"></rect>
            <path d="M28,25 L40.5,25 C42.9852814,25 45,27.0147186 45,29.5 C45,31.9852814 42.9852814,34 40.5,34 L28,34 L28,34" id="路径" stroke="#19191A" stroke-width="2"></path>
            <polygon id="矩形" fill="#19191A" fill-rule="nonzero" points="10 23.041 13 22 13 28 10 27"></polygon>
            <polygon id="矩形" fill="#19191A" fill-rule="nonzero" points="53 40 56 41 56 45 53 46"></polygon>
            <polygon id="矩形" stroke="#19191A" stroke-width="2" fill="#E6E9EB" fill-rule="nonzero" points="21.8768114 22.8468902 26 23.7959689 26 26.2059305 21.9542095 27.1471149 15 27.0183453 15 22.9807273"></polygon>
            <polygon id="矩形" stroke="#19191A" stroke-width="2" fill="#E6E9EB" fill-rule="nonzero" transform="translate(45.500000, 43.000910) scale(-1, 1) translate(-45.500000, -43.000910) " points="46.8857517 40.8475826 51 41.7957523 51 44.20368 46.8622574 45.1542367 40 45.019449 40 40.9808353"></polygon>
            <path d="M37,43 L21.5,43 C18.734375,42.9008789 17,40.9852814 17,38.5 C17,36.0147186 18.9536133,34.0097656 21.5,34 L37,34" id="路径" stroke="#19191A" stroke-width="2"></path>
        </g>
    </g>
</svg>