<?xml version="1.0" encoding="UTF-8"?>
<svg width="64px" height="64px" viewBox="0 0 64 64" version="1.1" xmlns="http://www.w3.org/2000/svg" xmlns:xlink="http://www.w3.org/1999/xlink">
    <title>Network Switches</title>
    <g id="页面-1" stroke="none" stroke-width="1" fill="none" fill-rule="evenodd">
        <g id="Network-Switches" fill-rule="nonzero">
            <polygon id="路径" fill-opacity="0" fill="#FFFFFF" points="0 0 64 0 64 64 0 64"></polygon>
            <polygon id="路径" fill="#E8E9EB" points="12 32 55 32 55 40 12 40"></polygon>
            <path d="M57,37.999 C57,39.653 55.654,40.999 54,40.999 L8.999,40.999 C7.345,40.999 5.999,39.653 5.999,37.999 L5.999,30.999 C5.999,29.915 6.583,28.973 7.446,28.445 L7.292,28.292 L12.414,23.171 C13.17,22.415 14.174,21.999 15.242,21.999 L47.757,21.999 C48.825,21.999 49.829,22.415 50.585,23.171 L55.707,28.292 L55.553,28.445 C56.416,28.973 57,29.915 57,30.999 L57,37.999 Z M49.171,24.585 C48.793,24.207 48.29,23.999 47.757,23.999 L15.242,23.999 C14.709,23.999 14.206,24.207 13.828,24.585 L10.414,27.999 L52.586,27.999 L49.171,24.585 Z M55,30.999 C55,30.447 54.551,29.999 54,29.999 L8.999,29.999 C8.448,29.999 7.999,30.447 7.999,30.999 L7.999,37.999 C7.999,38.551 8.448,38.999 8.999,38.999 L54,38.999 C54.551,38.999 55,38.551 55,37.999 L55,30.999 Z" id="形状" fill="#19191A"></path>
            <path d="M50.999,36.999 L50.999,34.999 L53,34.999 L53,36.999 L50.999,36.999 Z M50.999,31.999 L53,31.999 L53,33.999 L50.999,33.999 L50.999,31.999 Z M47,34.999 L49,34.999 L49,36.999 L47,36.999 L47,34.999 Z M47,31.999 L49,31.999 L49,33.999 L47,33.999 L47,31.999 Z M42.999,34.999 L44.999,34.999 L44.999,36.999 L42.999,36.999 L42.999,34.999 Z M42.999,31.999 L44.999,31.999 L44.999,33.999 L42.999,33.999 L42.999,31.999 Z M39,34.999 L41,34.999 L41,36.999 L39,36.999 L39,34.999 Z M39,31.999 L41,31.999 L41,33.999 L39,33.999 L39,31.999 Z" id="形状" fill="#19191A"></path>
            <path d="M12,34.999 L15.999,34.999 L15.999,36.999 L12,36.999 L12,34.999 Z M12,31.999 L15.999,31.999 L15.999,33.999 L12,33.999 L12,31.999 Z" id="形状" fill="#19191A"></path>
        </g>
    </g>
</svg>