<?xml version="1.0" encoding="UTF-8"?>
<svg width="64px" height="64px" viewBox="0 0 64 64" version="1.1" xmlns="http://www.w3.org/2000/svg" xmlns:xlink="http://www.w3.org/1999/xlink">
    <title>Transceivers</title>
    <g id="页面-1" stroke="none" stroke-width="1" fill="none" fill-rule="evenodd">
        <g id="Transceivers" fill-rule="nonzero">
            <polygon id="路径" fill-opacity="0" fill="#FFFFFF" points="0 0 64 0 64 64 0 64"></polygon>
            <path d="M17,28 L58,28 C58.552,28 59,28.448 59,29 L59,39 C59,39.552 58.552,40 58,40 L17,40 C16.448,40 16,39.552 16,39 L16,29 C16,28.448 16.448,28 17,28 Z" id="路径" fill="#E8E9EB"></path>
            <path d="M57,40.999 L11,40.999 L11,39.999 L10,39.999 C10,41.101 9.103,41.999 8,41.999 L6,41.999 C4.897,41.999 4,41.101 4,39.999 L4,23.999 C4,22.896 4.897,21.999 6,21.999 L8,21.999 C9.103,21.999 10,22.896 10,23.999 L11,23.999 L11,22.999 L57,22.999 C58.654,22.999 60,24.345 60,25.999 L60,37.999 C60,39.653 58.654,40.999 57,40.999 Z M11,25.999 L10,25.999 C8.897,25.999 8,25.101 8,23.999 L6,23.999 L6,39.999 L8,39.999 C8,38.896 8.897,37.999 10,37.999 L11,37.999 L11,25.999 Z M58,25.999 C58,25.447 57.551,24.999 57,24.999 L13,24.999 L13,38.999 L57,38.999 C57.551,38.999 58,38.551 58,37.999 L58,25.999 Z" id="形状" fill="#19191A"></path>
            <path d="M17,29 C17.5522847,29 18,29.4477153 18,30 L18,34 C18,34.5522847 17.5522847,35 17,35 C16.4477153,35 16,34.5522847 16,34 L16,30 C16,29.4477153 16.4477153,29 17,29 Z" id="路径" fill="#19191A"></path>
            <path d="M47,34.999 L49,34.999 C49.5522847,34.999 50,35.4467153 50,35.999 C50,36.5512847 49.5522847,36.999 49,36.999 L47,36.999 C46.4477153,36.999 46,36.5512847 46,35.999 C46,35.4467153 46.4477153,34.999 47,34.999 Z M47,26.999 L54,26.999 C54.5522847,26.999 55,27.4467153 55,27.999 C55,28.5512847 54.5522847,28.999 54,28.999 L47,28.999 C46.4477153,28.999 46,28.5512847 46,27.999 C46,27.4467153 46.4477153,26.999 47,26.999 Z M51,32.999 L47,32.999 C46.4477153,32.999 46,32.5512847 46,31.999 C46,31.4467153 46.4477153,30.999 47,30.999 L51,30.999 C51.5522847,30.999 52,31.4467153 52,31.999 C52,32.5512847 51.5522847,32.999 51,32.999 Z" id="形状" fill="#19191A"></path>
        </g>
    </g>
</svg>